<svg xmlns="http://www.w3.org/2000/svg" width="1100" height="650" viewBox="0 0 1100 650">
<rect width="100%" height="100%" fill="#ffffff"/>
<text x="95" y="34" font-family="Arial, sans-serif" font-size="22" font-weight="700" fill="#111">DroneVehicle sub2k training loss: baselines vs CMDistill</text>
<text x="95" y="58" font-family="Arial, sans-serif" font-size="13" fill="#555">Loss scale is not strictly comparable across from-scratch and reload runs, but the initialization difference is visible.</text>
<line x1="95" y1="502.5" x2="790" y2="502.5" stroke="#e8e8e8" stroke-width="1"/>
<text x="85" y="506.5" text-anchor="end" font-family="Arial, sans-serif" font-size="12" fill="#555">1.000</text>
<line x1="95" y1="407.3" x2="790" y2="407.3" stroke="#e8e8e8" stroke-width="1"/>
<text x="85" y="411.3" text-anchor="end" font-family="Arial, sans-serif" font-size="12" fill="#555">1.200</text>
<line x1="95" y1="312.1" x2="790" y2="312.1" stroke="#e8e8e8" stroke-width="1"/>
<text x="85" y="316.1" text-anchor="end" font-family="Arial, sans-serif" font-size="12" fill="#555">1.400</text>
<line x1="95" y1="216.9" x2="790" y2="216.9" stroke="#e8e8e8" stroke-width="1"/>
<text x="85" y="220.9" text-anchor="end" font-family="Arial, sans-serif" font-size="12" fill="#555">1.600</text>
<line x1="95" y1="121.7" x2="790" y2="121.7" stroke="#e8e8e8" stroke-width="1"/>
<text x="85" y="125.7" text-anchor="end" font-family="Arial, sans-serif" font-size="12" fill="#555">1.800</text>
<line x1="95" y1="26.5" x2="790" y2="26.5" stroke="#e8e8e8" stroke-width="1"/>
<text x="85" y="30.5" text-anchor="end" font-family="Arial, sans-serif" font-size="12" fill="#555">2.000</text>
<line x1="95.0" y1="70" x2="95.0" y2="572" stroke="#f2f2f2" stroke-width="1"/>
<text x="95.0" y="596" text-anchor="middle" font-family="Arial, sans-serif" font-size="12" fill="#555">1</text>
<line x1="161.4" y1="70" x2="161.4" y2="572" stroke="#f2f2f2" stroke-width="1"/>
<text x="161.4" y="596" text-anchor="middle" font-family="Arial, sans-serif" font-size="12" fill="#555">20</text>
<line x1="231.2" y1="70" x2="231.2" y2="572" stroke="#f2f2f2" stroke-width="1"/>
<text x="231.2" y="596" text-anchor="middle" font-family="Arial, sans-serif" font-size="12" fill="#555">40</text>
<line x1="301.1" y1="70" x2="301.1" y2="572" stroke="#f2f2f2" stroke-width="1"/>
<text x="301.1" y="596" text-anchor="middle" font-family="Arial, sans-serif" font-size="12" fill="#555">60</text>
<line x1="370.9" y1="70" x2="370.9" y2="572" stroke="#f2f2f2" stroke-width="1"/>
<text x="370.9" y="596" text-anchor="middle" font-family="Arial, sans-serif" font-size="12" fill="#555">80</text>
<line x1="440.8" y1="70" x2="440.8" y2="572" stroke="#f2f2f2" stroke-width="1"/>
<text x="440.8" y="596" text-anchor="middle" font-family="Arial, sans-serif" font-size="12" fill="#555">100</text>
<line x1="510.6" y1="70" x2="510.6" y2="572" stroke="#f2f2f2" stroke-width="1"/>
<text x="510.6" y="596" text-anchor="middle" font-family="Arial, sans-serif" font-size="12" fill="#555">120</text>
<line x1="580.5" y1="70" x2="580.5" y2="572" stroke="#f2f2f2" stroke-width="1"/>
<text x="580.5" y="596" text-anchor="middle" font-family="Arial, sans-serif" font-size="12" fill="#555">140</text>
<line x1="650.3" y1="70" x2="650.3" y2="572" stroke="#f2f2f2" stroke-width="1"/>
<text x="650.3" y="596" text-anchor="middle" font-family="Arial, sans-serif" font-size="12" fill="#555">160</text>
<line x1="720.2" y1="70" x2="720.2" y2="572" stroke="#f2f2f2" stroke-width="1"/>
<text x="720.2" y="596" text-anchor="middle" font-family="Arial, sans-serif" font-size="12" fill="#555">180</text>
<line x1="790.0" y1="70" x2="790.0" y2="572" stroke="#f2f2f2" stroke-width="1"/>
<text x="790.0" y="596" text-anchor="middle" font-family="Arial, sans-serif" font-size="12" fill="#555">200</text>
<line x1="95" y1="572" x2="790" y2="572" stroke="#333" stroke-width="1.2"/>
<line x1="95" y1="70" x2="95" y2="572" stroke="#333" stroke-width="1.2"/>
<text x="442.5" y="626" text-anchor="middle" font-family="Arial, sans-serif" font-size="14" fill="#333">epoch</text>
<text x="22" y="321.0" transform="rotate(-90 22 321.0)" text-anchor="middle" font-family="Arial, sans-serif" font-size="14" fill="#333">train/box_loss</text>
<path d="M95.0,104.6 L98.5,167.1 L102.0,168.6 L105.5,165.2 L109.0,208.3 L112.5,226.2 L116.0,234.8 L119.4,249.8 L122.9,244.0 L126.4,252.5 L129.9,266.4 L133.4,272.7 L136.9,275.1 L140.4,279.1 L143.9,275.8 L147.4,289.5 L150.9,296.5 L154.4,289.5 L157.9,302.8 L161.4,304.3 L164.8,312.3 L168.3,305.6 L171.8,302.8 L175.3,316.4 L178.8,314.5 L182.3,314.1 L185.8,314.0 L189.3,315.8 L192.8,317.0 L196.3,324.3 L199.8,321.8 L203.3,317.2 L206.8,322.6 L210.3,328.7 L213.7,332.6 L217.2,327.0 L220.7,338.6 L224.2,339.1 L227.7,336.4 L231.2,334.2 L234.7,330.8 L238.2,343.9 L241.7,344.2 L245.2,341.0 L248.7,354.9 L252.2,342.5 L255.7,345.5 L259.1,348.8 L262.6,345.4 L266.1,351.1 L269.6,349.6 L273.1,361.7 L276.6,354.1 L280.1,350.8 L283.6,353.4 L287.1,355.0 L290.6,357.3 L294.1,364.8 L297.6,367.0 L301.1,363.0 L304.5,370.1 L308.0,367.0 L311.5,365.1 L315.0,363.1 L318.5,371.3 L322.0,370.4 L325.5,369.4 L329.0,378.6 L332.5,365.1 L336.0,378.5 L339.5,374.0 L343.0,377.6 L346.5,383.0 L349.9,376.3 L353.4,376.6 L356.9,379.2 L360.4,383.2 L363.9,389.6 L367.4,386.5 L370.9,386.9 L374.4,388.1 L377.9,389.4 L381.4,386.5 L384.9,395.4 L388.4,392.3 L391.9,397.3 L395.4,390.7 L398.8,397.4 L402.3,392.1 L405.8,399.9 L409.3,403.3 L412.8,391.9 L416.3,395.7 L419.8,398.5 L423.3,397.7 L426.8,406.0 L430.3,401.7 L433.8,405.5 L437.3,403.3 L440.8,402.5 L444.2,409.6 L447.7,410.2 L451.2,411.4 L454.7,412.8 L458.2,413.0 L461.7,413.8 L465.2,413.5 L468.7,416.4 L472.2,424.9 L475.7,419.6 L479.2,423.2 L482.7,423.2 L486.2,422.4 L489.6,423.6 L493.1,421.0 L496.6,424.0 L500.1,427.3 L503.6,428.9 L507.1,423.1 L510.6,431.4 L514.1,435.1 L517.6,435.4 L521.1,427.4 L524.6,427.2 L528.1,427.2 L531.6,435.7 L535.1,434.8 L538.5,440.2 L542.0,439.5 L545.5,437.7 L549.0,439.0 L552.5,442.0 L556.0,440.3 L559.5,434.3 L563.0,449.3 L566.5,447.4 L570.0,443.8 L573.5,445.5 L577.0,450.4 L580.5,453.6 L583.9,455.4 L587.4,456.3 L590.9,455.4 L594.4,449.1 L597.9,456.7 L601.4,459.0 L604.9,459.8 L608.4,462.0 L611.9,458.9 L615.4,451.9 L618.9,461.4 L622.4,463.2 L625.9,462.2 L629.3,464.2 L632.8,470.0 L636.3,468.8 L639.8,468.0 L643.3,468.0 L646.8,458.6 L650.3,462.9 L653.8,469.0 L657.3,470.4 L660.8,465.9 L664.3,476.5 L667.8,476.4 L671.3,473.1 L674.7,473.3 L678.2,473.6 L681.7,477.4 L685.2,476.7 L688.7,476.1 L692.2,473.1 L695.7,480.5 L699.2,473.5 L702.7,480.2 L706.2,481.2 L709.7,474.1 L713.2,477.1 L716.7,488.0 L720.2,479.1 L723.6,480.8 L727.1,488.4 L730.6,479.3 L734.1,480.7 L737.6,481.0 L741.1,481.6 L744.6,475.8 L748.1,478.9 L751.6,478.8 L755.1,483.6 L758.6,487.4 L762.1,473.4 L765.6,486.0 L769.0,486.8 L772.5,485.6 L776.0,489.2 L779.5,486.8 L783.0,481.5 L786.5,485.0 L790.0,483.7" fill="none" stroke="#1f77b4" stroke-width="2.4" stroke-linejoin="round" stroke-linecap="round"/>
<path d="M95.0,172.6 L98.5,246.6 L102.0,247.3 L105.5,250.0 L109.0,278.6 L112.5,299.3 L116.0,305.2 L119.4,316.6 L122.9,317.7 L126.4,318.8 L129.9,337.9 L133.4,341.7 L136.9,340.6 L140.4,344.5 L143.9,348.0 L147.4,352.4 L150.9,351.6 L154.4,352.5 L157.9,367.5 L161.4,366.2 L164.8,372.3 L168.3,365.5 L171.8,368.5 L175.3,373.5 L178.8,377.4 L182.3,371.5 L185.8,375.1 L189.3,372.5 L192.8,379.7 L196.3,387.1 L199.8,382.2 L203.3,380.5 L206.8,386.4 L210.3,382.3 L213.7,391.6 L217.2,392.1 L220.7,386.8 L224.2,396.7 L227.7,392.6 L231.2,389.0 L234.7,393.8 L238.2,399.4 L241.7,397.6 L245.2,400.5 L248.7,402.1 L252.2,393.8 L255.7,400.9 L259.1,399.8 L262.6,404.9 L266.1,407.3 L269.6,402.7 L273.1,413.7 L276.6,406.9 L280.1,407.3 L283.6,413.8 L287.1,408.5 L290.6,411.0 L294.1,413.0 L297.6,419.3 L301.1,418.0 L304.5,420.4 L308.0,418.6 L311.5,417.9 L315.0,418.5 L318.5,429.5 L322.0,424.8 L325.5,423.0 L329.0,424.5 L332.5,425.9 L336.0,425.6 L339.5,424.0 L343.0,427.4 L346.5,430.8 L349.9,429.4 L353.4,430.1 L356.9,432.7 L360.4,434.0 L363.9,440.0 L367.4,439.0 L370.9,437.9 L374.4,435.6 L377.9,443.4 L381.4,436.0 L384.9,447.5 L388.4,443.4 L391.9,444.1 L395.4,438.2 L398.8,442.9 L402.3,437.0 L405.8,445.4 L409.3,453.4 L412.8,443.1 L416.3,449.6 L419.8,448.8 L423.3,446.0 L426.8,448.7 L430.3,456.2 L433.8,447.2 L437.3,450.9 L440.8,452.0 L444.2,458.1 L447.7,458.1 L451.2,463.9 L454.7,461.3 L458.2,462.0 L461.7,462.2 L465.2,463.3 L468.7,461.2 L472.2,465.2 L475.7,464.6 L479.2,469.3 L482.7,465.6 L486.2,467.2 L489.6,466.9 L493.1,467.6 L496.6,467.5 L500.1,474.6 L503.6,468.5 L507.1,469.8 L510.6,475.3 L514.1,478.3 L517.6,477.4 L521.1,478.0 L524.6,477.7 L528.1,472.6 L531.6,478.5 L535.1,478.8 L538.5,479.2 L542.0,485.6 L545.5,480.0 L549.0,481.6 L552.5,481.3 L556.0,485.1 L559.5,482.3 L563.0,489.6 L566.5,490.5 L570.0,485.8 L573.5,487.5 L577.0,492.4 L580.5,493.3 L583.9,496.5 L587.4,492.4 L590.9,495.6 L594.4,493.7 L597.9,489.7 L601.4,495.9 L604.9,493.9 L608.4,497.5 L611.9,499.0 L615.4,495.9 L618.9,501.3 L622.4,506.4 L625.9,500.0 L629.3,501.1 L632.8,507.6 L636.3,508.5 L639.8,508.8 L643.3,506.9 L646.8,498.2 L650.3,506.9 L653.8,507.1 L657.3,511.0 L660.8,506.8 L664.3,512.4 L667.8,516.4 L671.3,514.7 L674.7,508.6 L678.2,515.8 L681.7,515.2 L685.2,513.1 L688.7,514.4 L692.2,512.8 L695.7,518.7 L699.2,514.1 L702.7,518.0 L706.2,512.5 L709.7,511.7 L713.2,516.3 L716.7,519.4 L720.2,519.3 L723.6,517.3 L727.1,522.2 L730.6,519.2 L734.1,517.9 L737.6,516.9 L741.1,522.9 L744.6,511.9 L748.1,518.9 L751.6,519.0 L755.1,519.5 L758.6,518.0 L762.1,514.7 L765.6,521.8 L769.0,521.8 L772.5,518.1 L776.0,521.7 L779.5,520.4 L783.0,518.6 L786.5,521.5 L790.0,521.1" fill="none" stroke="#2ca02c" stroke-width="2.4" stroke-linejoin="round" stroke-linecap="round"/>
<path d="M95.0,456.8 L98.5,455.2 L102.0,457.4 L105.5,459.1 L109.0,468.4 L112.5,462.5 L116.0,460.0 L119.4,469.0 L122.9,459.3 L126.4,467.0 L129.9,465.1 L133.4,470.4 L136.9,467.1 L140.4,469.8 L143.9,466.4 L147.4,463.8 L150.9,466.8 L154.4,464.0 L157.9,471.0 L161.4,474.4 L164.8,475.0 L168.3,470.2 L171.8,464.0 L175.3,470.7 L178.8,472.0 L182.3,464.2 L185.8,472.1 L189.3,468.9 L192.8,467.1 L196.3,475.0 L199.8,471.1 L203.3,470.7 L206.8,466.5 L210.3,472.2 L213.7,477.9 L217.2,473.5 L220.7,476.9 L224.2,478.5 L227.7,478.0 L231.2,472.7 L234.7,470.1 L238.2,476.9 L241.7,480.2 L245.2,474.2 L248.7,487.6 L252.2,471.6 L255.7,476.0 L259.1,480.5 L262.6,478.7 L266.1,479.9 L269.6,479.7 L273.1,486.5 L276.6,478.6 L280.1,480.5 L283.6,478.9 L287.1,479.5 L290.6,481.1 L294.1,485.3 L297.6,488.3 L301.1,483.1 L304.5,489.2 L308.0,482.3 L311.5,484.6 L315.0,478.4 L318.5,487.0 L322.0,487.1 L325.5,486.2 L329.0,490.3 L332.5,481.2 L336.0,490.7 L339.5,481.8 L343.0,488.5 L346.5,489.5 L349.9,486.4 L353.4,484.2 L356.9,488.9 L360.4,489.7 L363.9,496.7 L367.4,488.5 L370.9,493.3 L374.4,489.5 L377.9,492.4 L381.4,488.7 L384.9,497.0 L388.4,488.8 L391.9,496.8 L395.4,487.5 L398.8,493.9 L402.3,485.7 L405.8,494.2 L409.3,499.3 L412.8,489.6 L416.3,490.8 L419.8,491.4 L423.3,489.4 L426.8,494.4 L430.3,494.4 L433.8,490.3 L437.3,489.7 L440.8,488.7 L444.2,498.3 L447.7,499.2 L451.2,499.0 L454.7,498.6 L458.2,497.7 L461.7,497.3 L465.2,496.4 L468.7,496.8 L472.2,505.2 L475.7,499.2 L479.2,502.6 L482.7,500.6 L486.2,499.7 L489.6,501.2 L493.1,496.9 L496.6,499.9 L500.1,500.4 L503.6,500.2 L507.1,496.2 L510.6,504.5 L514.1,507.1 L517.6,505.2 L521.1,499.3 L524.6,496.5 L528.1,493.6 L531.6,500.1 L535.1,501.1 L538.5,504.6 L542.0,505.2 L545.5,500.9 L549.0,502.8 L552.5,500.8 L556.0,500.3 L559.5,495.3 L563.0,509.6 L566.5,507.4 L570.0,503.0 L573.5,501.5 L577.0,507.5" fill="none" stroke="#7f7f7f" stroke-width="2.4" stroke-linejoin="round" stroke-linecap="round"/>
<path d="M95.0,457.5 L98.5,447.6 L102.0,431.6 L105.5,406.1 L109.0,406.8 L112.5,399.0 L116.0,394.5 L119.4,401.0 L122.9,392.4 L126.4,395.3 L129.9,395.7 L133.4,402.8 L136.9,399.3 L140.4,400.9 L143.9,400.2 L147.4,400.2 L150.9,400.4 L154.4,397.7 L157.9,402.2 L161.4,409.8 L164.8,410.8 L168.3,403.4 L171.8,398.4 L175.3,405.6 L178.8,407.3 L182.3,400.6 L185.8,406.7 L189.3,406.9 L192.8,404.8 L196.3,414.6 L199.8,409.4 L203.3,408.4 L206.8,406.5 L210.3,411.9 L213.7,416.5 L217.2,410.1 L220.7,418.7 L224.2,421.3 L227.7,422.3 L231.2,414.5 L234.7,410.2 L238.2,419.5 L241.7,421.4 L245.2,417.7 L248.7,431.0 L252.2,415.6 L255.7,420.4 L259.1,422.7 L262.6,425.8 L266.1,426.9 L269.6,422.7 L273.1,435.6 L276.6,428.3 L280.1,429.8 L283.6,426.3 L287.1,427.4 L290.6,429.6 L294.1,435.5 L297.6,438.4 L301.1,435.1 L304.5,439.9 L308.0,436.2 L311.5,437.1 L315.0,433.4 L318.5,442.0 L322.0,440.5 L325.5,443.2 L329.0,444.9 L332.5,439.7 L336.0,445.2 L339.5,439.6 L343.0,446.8 L346.5,452.0 L349.9,442.6 L353.4,444.7 L356.9,446.4 L360.4,451.1 L363.9,457.5 L367.4,452.5 L370.9,455.7 L374.4,452.6 L377.9,455.1 L381.4,450.0 L384.9,463.4 L388.4,456.2 L391.9,462.0 L395.4,455.3 L398.8,461.8 L402.3,451.7 L405.8,462.6 L409.3,469.8 L412.8,459.3 L416.3,463.8 L419.8,462.8 L423.3,460.9 L426.8,467.2 L430.3,467.3 L433.8,465.6 L437.3,464.8 L440.8,463.8 L444.2,474.2 L447.7,471.6 L451.2,476.2 L454.7,476.6 L458.2,477.6 L461.7,475.9 L465.2,475.6 L468.7,475.7 L472.2,484.9 L475.7,480.3 L479.2,485.1 L482.7,482.1 L486.2,482.2 L489.6,482.2 L493.1,479.9 L496.6,484.0 L500.1,486.1 L503.6,485.7 L507.1,485.7 L510.6,493.3 L514.1,497.4 L517.6,493.9 L521.1,490.5 L524.6,485.4 L528.1,483.9 L531.6,491.7 L535.1,492.4 L538.5,496.9 L542.0,499.1 L545.5,495.3 L549.0,497.3 L552.5,498.0 L556.0,496.8 L559.5,492.2 L563.0,506.8 L566.5,504.8 L570.0,501.9 L573.5,501.1 L577.0,506.3 L580.5,507.1 L583.9,513.7 L587.4,512.0 L590.9,509.3 L594.4,503.3 L597.9,510.5 L601.4,513.3 L604.9,511.4 L608.4,514.3 L611.9,512.2 L615.4,504.6 L618.9,513.5 L622.4,516.9 L625.9,514.7 L629.3,515.5 L632.8,523.2 L636.3,521.4 L639.8,520.7 L643.3,519.4 L646.8,510.5 L650.3,515.4 L653.8,519.1 L657.3,521.5 L660.8,516.5 L664.3,529.5 L667.8,528.5 L671.3,524.1 L674.7,523.4 L678.2,522.9 L681.7,527.2 L685.2,527.9 L688.7,527.2 L692.2,523.5 L695.7,530.2 L699.2,524.1 L702.7,529.4 L706.2,528.9 L709.7,522.0 L713.2,526.3 L716.7,536.7 L720.2,529.4 L723.6,528.9 L727.1,536.9 L730.6,527.1 L734.1,527.5 L737.6,528.3 L741.1,531.0 L744.6,521.8 L748.1,527.9 L751.6,527.7 L755.1,532.0 L758.6,534.3 L762.1,521.0 L765.6,534.2 L769.0,535.1 L772.5,533.3 L776.0,537.4 L779.5,536.2 L783.0,528.9 L786.5,533.4 L790.0,532.2" fill="none" stroke="#d62728" stroke-width="2.4" stroke-linejoin="round" stroke-linecap="round"/>
<path d="M95.0,458.2 L98.5,454.9 L102.0,456.3 L105.5,457.7 L109.0,467.0 L112.5,460.2 L116.0,458.6 L119.4,466.5 L122.9,457.1 L126.4,464.7 L129.9,463.3 L133.4,468.0 L136.9,464.9 L140.4,467.9 L143.9,464.3 L147.4,461.5 L150.9,464.1 L154.4,460.8 L157.9,468.4 L161.4,471.5 L164.8,472.8 L168.3,467.2 L171.8,461.6 L175.3,466.9 L178.8,469.4 L182.3,462.2 L185.8,469.5 L189.3,465.0 L192.8,463.7 L196.3,472.3 L199.8,468.2 L203.3,467.1 L206.8,463.5 L210.3,468.8 L213.7,475.1 L217.2,470.5 L220.7,474.2 L224.2,475.3 L227.7,475.1 L231.2,469.5 L234.7,467.0 L238.2,473.4 L241.7,476.5 L245.2,470.4 L248.7,484.0 L252.2,468.1 L255.7,472.4 L259.1,476.5 L262.6,473.9 L266.1,476.2 L269.6,475.4 L273.1,482.8 L276.6,475.3 L280.1,477.5 L283.6,474.8 L287.1,475.6 L290.6,477.1 L294.1,480.1 L297.6,483.5 L301.1,479.5 L304.5,484.5 L308.0,478.1 L311.5,480.4 L315.0,474.1 L318.5,483.4 L322.0,482.6 L325.5,481.7 L329.0,486.4 L332.5,476.8 L336.0,485.9 L339.5,477.7 L343.0,484.3 L346.5,485.0 L349.9,481.2 L353.4,480.2 L356.9,484.3 L360.4,485.6 L363.9,492.0 L367.4,484.0 L370.9,488.4 L374.4,484.7 L377.9,488.3 L381.4,484.0 L384.9,491.8 L388.4,484.3 L391.9,492.1 L395.4,482.9 L398.8,488.6 L402.3,480.5 L405.8,489.1" fill="none" stroke="#9467bd" stroke-width="2.4" stroke-linejoin="round" stroke-linecap="round"/>
<rect x="804" y="54" width="270" height="306" rx="6" fill="#fafafa" stroke="#e5e5e5"/>
<text x="818" y="78" font-family="Arial, sans-serif" font-size="14" font-weight="700" fill="#111">Legend</text>
<line x1="818" y1="106" x2="846" y2="106" stroke="#1f77b4" stroke-width="3"/>
<text x="856" y="110" font-family="Arial, sans-serif" font-size="12.5" fill="#222">RGB baseline from scratch</text>
<text x="856" y="126" font-family="Arial, sans-serif" font-size="11" fill="#666">best e1 1.8359 / last e200 1.0395</text>
<line x1="818" y1="148" x2="846" y2="148" stroke="#2ca02c" stroke-width="3"/>
<text x="856" y="152" font-family="Arial, sans-serif" font-size="12.5" fill="#222">IR baseline from scratch</text>
<text x="856" y="168" font-family="Arial, sans-serif" font-size="11" fill="#666">best e1 1.6931 / last e200 0.9608</text>
<line x1="818" y1="190" x2="846" y2="190" stroke="#7f7f7f" stroke-width="3"/>
<text x="856" y="194" font-family="Arial, sans-serif" font-size="12.5" fill="#222">det-only reload lowLR</text>
<text x="856" y="210" font-family="Arial, sans-serif" font-size="11" fill="#666">best e2 1.0993 / last e139 0.9895</text>
<line x1="818" y1="232" x2="846" y2="232" stroke="#d62728" stroke-width="3"/>
<text x="856" y="236" font-family="Arial, sans-serif" font-size="12.5" fill="#222">CMDistill reload highLR</text>
<text x="856" y="252" font-family="Arial, sans-serif" font-size="11" fill="#666">best e9 1.2311 / last e200 0.9374</text>
<line x1="818" y1="274" x2="846" y2="274" stroke="#9467bd" stroke-width="3"/>
<text x="856" y="278" font-family="Arial, sans-serif" font-size="12.5" fill="#222">CMDistill reload lowLR</text>
<text x="856" y="294" font-family="Arial, sans-serif" font-size="11" fill="#666">best e2 1.0999 / last e90 1.0280</text>
<text x="818" y="334" font-family="Arial, sans-serif" font-size="11.5" fill="#9a3412">Audit note: no CMDistill-from-scratch run was found; CMDistill curves reload RGB baseline best.pt.</text>
</svg>