<?xml version="1.0" encoding="utf-8" standalone="no"?>
<!DOCTYPE svg PUBLIC "-//W3C//DTD SVG 1.1//EN"
  "http://www.w3.org/Graphics/SVG/1.1/DTD/svg11.dtd">
<svg xmlns:xlink="http://www.w3.org/1999/xlink" width="828pt" height="468pt" viewBox="0 0 828 468" xmlns="http://www.w3.org/2000/svg" version="1.1">
 <metadata>
  <rdf:RDF xmlns:dc="http://purl.org/dc/elements/1.1/" xmlns:cc="http://creativecommons.org/ns#" xmlns:rdf="http://www.w3.org/1999/02/22-rdf-syntax-ns#">
   <cc:Work>
    <dc:type rdf:resource="http://purl.org/dc/dcmitype/StillImage"/>
    <dc:date>2026-06-25T13:18:06.891615</dc:date>
    <dc:format>image/svg+xml</dc:format>
    <dc:creator>
     <cc:Agent>
      <dc:title>Matplotlib v3.8.4, https://matplotlib.org/</dc:title>
     </cc:Agent>
    </dc:creator>
   </cc:Work>
  </rdf:RDF>
 </metadata>
 <defs>
  <style type="text/css">*{stroke-linejoin: round; stroke-linecap: butt}</style>
 </defs>
 <g id="figure_1">
  <g id="patch_1">
   <path d="M 0 468 
L 828 468 
L 828 0 
L 0 0 
z
" style="fill: #ffffff"/>
  </g>
  <g id="axes_1">
   <g id="patch_2">
    <path d="M 47.81 426.04 
L 817.2 426.04 
L 817.2 25.44 
L 47.81 25.44 
z
" style="fill: #ffffff"/>
   </g>
   <g id="matplotlib.axis_1">
    <g id="xtick_1">
     <g id="line2d_1">
      <path d="M 80.593085 426.04 
L 80.593085 25.44 
" clip-path="url(#p85ead68678)" style="fill: none; stroke: #b0b0b0; stroke-opacity: 0.25; stroke-width: 0.8; stroke-linecap: square"/>
     </g>
     <g id="line2d_2">
      <defs>
       <path id="mdfe27c0693" d="M 0 0 
L 0 3.5 
" style="stroke: #000000; stroke-width: 0.8"/>
      </defs>
      <g>
       <use xlink:href="#mdfe27c0693" x="80.593085" y="426.04" style="stroke: #000000; stroke-width: 0.8"/>
      </g>
     </g>
     <g id="text_1">
      <!-- 0 -->
      <g transform="translate(77.411835 440.638438) scale(0.1 -0.1)">
       <defs>
        <path id="DejaVuSans-30" d="M 2034 4250 
Q 1547 4250 1301 3770 
Q 1056 3291 1056 2328 
Q 1056 1369 1301 889 
Q 1547 409 2034 409 
Q 2525 409 2770 889 
Q 3016 1369 3016 2328 
Q 3016 3291 2770 3770 
Q 2525 4250 2034 4250 
z
M 2034 4750 
Q 2819 4750 3233 4129 
Q 3647 3509 3647 2328 
Q 3647 1150 3233 529 
Q 2819 -91 2034 -91 
Q 1250 -91 836 529 
Q 422 1150 422 2328 
Q 422 3509 836 4129 
Q 1250 4750 2034 4750 
z
" transform="scale(0.015625)"/>
       </defs>
       <use xlink:href="#DejaVuSans-30"/>
      </g>
     </g>
    </g>
    <g id="xtick_2">
     <g id="line2d_3">
      <path d="M 190.052468 426.04 
L 190.052468 25.44 
" clip-path="url(#p85ead68678)" style="fill: none; stroke: #b0b0b0; stroke-opacity: 0.25; stroke-width: 0.8; stroke-linecap: square"/>
     </g>
     <g id="line2d_4">
      <g>
       <use xlink:href="#mdfe27c0693" x="190.052468" y="426.04" style="stroke: #000000; stroke-width: 0.8"/>
      </g>
     </g>
     <g id="text_2">
      <!-- 100 -->
      <g transform="translate(180.508718 440.638438) scale(0.1 -0.1)">
       <defs>
        <path id="DejaVuSans-31" d="M 794 531 
L 1825 531 
L 1825 4091 
L 703 3866 
L 703 4441 
L 1819 4666 
L 2450 4666 
L 2450 531 
L 3481 531 
L 3481 0 
L 794 0 
L 794 531 
z
" transform="scale(0.015625)"/>
       </defs>
       <use xlink:href="#DejaVuSans-31"/>
       <use xlink:href="#DejaVuSans-30" x="63.623047"/>
       <use xlink:href="#DejaVuSans-30" x="127.246094"/>
      </g>
     </g>
    </g>
    <g id="xtick_3">
     <g id="line2d_5">
      <path d="M 299.51185 426.04 
L 299.51185 25.44 
" clip-path="url(#p85ead68678)" style="fill: none; stroke: #b0b0b0; stroke-opacity: 0.25; stroke-width: 0.8; stroke-linecap: square"/>
     </g>
     <g id="line2d_6">
      <g>
       <use xlink:href="#mdfe27c0693" x="299.51185" y="426.04" style="stroke: #000000; stroke-width: 0.8"/>
      </g>
     </g>
     <g id="text_3">
      <!-- 200 -->
      <g transform="translate(289.9681 440.638438) scale(0.1 -0.1)">
       <defs>
        <path id="DejaVuSans-32" d="M 1228 531 
L 3431 531 
L 3431 0 
L 469 0 
L 469 531 
Q 828 903 1448 1529 
Q 2069 2156 2228 2338 
Q 2531 2678 2651 2914 
Q 2772 3150 2772 3378 
Q 2772 3750 2511 3984 
Q 2250 4219 1831 4219 
Q 1534 4219 1204 4116 
Q 875 4013 500 3803 
L 500 4441 
Q 881 4594 1212 4672 
Q 1544 4750 1819 4750 
Q 2544 4750 2975 4387 
Q 3406 4025 3406 3419 
Q 3406 3131 3298 2873 
Q 3191 2616 2906 2266 
Q 2828 2175 2409 1742 
Q 1991 1309 1228 531 
z
" transform="scale(0.015625)"/>
       </defs>
       <use xlink:href="#DejaVuSans-32"/>
       <use xlink:href="#DejaVuSans-30" x="63.623047"/>
       <use xlink:href="#DejaVuSans-30" x="127.246094"/>
      </g>
     </g>
    </g>
    <g id="xtick_4">
     <g id="line2d_7">
      <path d="M 408.971233 426.04 
L 408.971233 25.44 
" clip-path="url(#p85ead68678)" style="fill: none; stroke: #b0b0b0; stroke-opacity: 0.25; stroke-width: 0.8; stroke-linecap: square"/>
     </g>
     <g id="line2d_8">
      <g>
       <use xlink:href="#mdfe27c0693" x="408.971233" y="426.04" style="stroke: #000000; stroke-width: 0.8"/>
      </g>
     </g>
     <g id="text_4">
      <!-- 300 -->
      <g transform="translate(399.427483 440.638438) scale(0.1 -0.1)">
       <defs>
        <path id="DejaVuSans-33" d="M 2597 2516 
Q 3050 2419 3304 2112 
Q 3559 1806 3559 1356 
Q 3559 666 3084 287 
Q 2609 -91 1734 -91 
Q 1441 -91 1130 -33 
Q 819 25 488 141 
L 488 750 
Q 750 597 1062 519 
Q 1375 441 1716 441 
Q 2309 441 2620 675 
Q 2931 909 2931 1356 
Q 2931 1769 2642 2001 
Q 2353 2234 1838 2234 
L 1294 2234 
L 1294 2753 
L 1863 2753 
Q 2328 2753 2575 2939 
Q 2822 3125 2822 3475 
Q 2822 3834 2567 4026 
Q 2313 4219 1838 4219 
Q 1578 4219 1281 4162 
Q 984 4106 628 3988 
L 628 4550 
Q 988 4650 1302 4700 
Q 1616 4750 1894 4750 
Q 2613 4750 3031 4423 
Q 3450 4097 3450 3541 
Q 3450 3153 3228 2886 
Q 3006 2619 2597 2516 
z
" transform="scale(0.015625)"/>
       </defs>
       <use xlink:href="#DejaVuSans-33"/>
       <use xlink:href="#DejaVuSans-30" x="63.623047"/>
       <use xlink:href="#DejaVuSans-30" x="127.246094"/>
      </g>
     </g>
    </g>
    <g id="xtick_5">
     <g id="line2d_9">
      <path d="M 518.430615 426.04 
L 518.430615 25.44 
" clip-path="url(#p85ead68678)" style="fill: none; stroke: #b0b0b0; stroke-opacity: 0.25; stroke-width: 0.8; stroke-linecap: square"/>
     </g>
     <g id="line2d_10">
      <g>
       <use xlink:href="#mdfe27c0693" x="518.430615" y="426.04" style="stroke: #000000; stroke-width: 0.8"/>
      </g>
     </g>
     <g id="text_5">
      <!-- 400 -->
      <g transform="translate(508.886865 440.638438) scale(0.1 -0.1)">
       <defs>
        <path id="DejaVuSans-34" d="M 2419 4116 
L 825 1625 
L 2419 1625 
L 2419 4116 
z
M 2253 4666 
L 3047 4666 
L 3047 1625 
L 3713 1625 
L 3713 1100 
L 3047 1100 
L 3047 0 
L 2419 0 
L 2419 1100 
L 313 1100 
L 313 1709 
L 2253 4666 
z
" transform="scale(0.015625)"/>
       </defs>
       <use xlink:href="#DejaVuSans-34"/>
       <use xlink:href="#DejaVuSans-30" x="63.623047"/>
       <use xlink:href="#DejaVuSans-30" x="127.246094"/>
      </g>
     </g>
    </g>
    <g id="xtick_6">
     <g id="line2d_11">
      <path d="M 627.889998 426.04 
L 627.889998 25.44 
" clip-path="url(#p85ead68678)" style="fill: none; stroke: #b0b0b0; stroke-opacity: 0.25; stroke-width: 0.8; stroke-linecap: square"/>
     </g>
     <g id="line2d_12">
      <g>
       <use xlink:href="#mdfe27c0693" x="627.889998" y="426.04" style="stroke: #000000; stroke-width: 0.8"/>
      </g>
     </g>
     <g id="text_6">
      <!-- 500 -->
      <g transform="translate(618.346248 440.638438) scale(0.1 -0.1)">
       <defs>
        <path id="DejaVuSans-35" d="M 691 4666 
L 3169 4666 
L 3169 4134 
L 1269 4134 
L 1269 2991 
Q 1406 3038 1543 3061 
Q 1681 3084 1819 3084 
Q 2600 3084 3056 2656 
Q 3513 2228 3513 1497 
Q 3513 744 3044 326 
Q 2575 -91 1722 -91 
Q 1428 -91 1123 -41 
Q 819 9 494 109 
L 494 744 
Q 775 591 1075 516 
Q 1375 441 1709 441 
Q 2250 441 2565 725 
Q 2881 1009 2881 1497 
Q 2881 1984 2565 2268 
Q 2250 2553 1709 2553 
Q 1456 2553 1204 2497 
Q 953 2441 691 2322 
L 691 4666 
z
" transform="scale(0.015625)"/>
       </defs>
       <use xlink:href="#DejaVuSans-35"/>
       <use xlink:href="#DejaVuSans-30" x="63.623047"/>
       <use xlink:href="#DejaVuSans-30" x="127.246094"/>
      </g>
     </g>
    </g>
    <g id="xtick_7">
     <g id="line2d_13">
      <path d="M 737.34938 426.04 
L 737.34938 25.44 
" clip-path="url(#p85ead68678)" style="fill: none; stroke: #b0b0b0; stroke-opacity: 0.25; stroke-width: 0.8; stroke-linecap: square"/>
     </g>
     <g id="line2d_14">
      <g>
       <use xlink:href="#mdfe27c0693" x="737.34938" y="426.04" style="stroke: #000000; stroke-width: 0.8"/>
      </g>
     </g>
     <g id="text_7">
      <!-- 600 -->
      <g transform="translate(727.80563 440.638438) scale(0.1 -0.1)">
       <defs>
        <path id="DejaVuSans-36" d="M 2113 2584 
Q 1688 2584 1439 2293 
Q 1191 2003 1191 1497 
Q 1191 994 1439 701 
Q 1688 409 2113 409 
Q 2538 409 2786 701 
Q 3034 994 3034 1497 
Q 3034 2003 2786 2293 
Q 2538 2584 2113 2584 
z
M 3366 4563 
L 3366 3988 
Q 3128 4100 2886 4159 
Q 2644 4219 2406 4219 
Q 1781 4219 1451 3797 
Q 1122 3375 1075 2522 
Q 1259 2794 1537 2939 
Q 1816 3084 2150 3084 
Q 2853 3084 3261 2657 
Q 3669 2231 3669 1497 
Q 3669 778 3244 343 
Q 2819 -91 2113 -91 
Q 1303 -91 875 529 
Q 447 1150 447 2328 
Q 447 3434 972 4092 
Q 1497 4750 2381 4750 
Q 2619 4750 2861 4703 
Q 3103 4656 3366 4563 
z
" transform="scale(0.015625)"/>
       </defs>
       <use xlink:href="#DejaVuSans-36"/>
       <use xlink:href="#DejaVuSans-30" x="63.623047"/>
       <use xlink:href="#DejaVuSans-30" x="127.246094"/>
      </g>
     </g>
    </g>
    <g id="text_8">
     <!-- epoch -->
     <g transform="translate(417.276875 454.316563) scale(0.1 -0.1)">
      <defs>
       <path id="DejaVuSans-65" d="M 3597 1894 
L 3597 1613 
L 953 1613 
Q 991 1019 1311 708 
Q 1631 397 2203 397 
Q 2534 397 2845 478 
Q 3156 559 3463 722 
L 3463 178 
Q 3153 47 2828 -22 
Q 2503 -91 2169 -91 
Q 1331 -91 842 396 
Q 353 884 353 1716 
Q 353 2575 817 3079 
Q 1281 3584 2069 3584 
Q 2775 3584 3186 3129 
Q 3597 2675 3597 1894 
z
M 3022 2063 
Q 3016 2534 2758 2815 
Q 2500 3097 2075 3097 
Q 1594 3097 1305 2825 
Q 1016 2553 972 2059 
L 3022 2063 
z
" transform="scale(0.015625)"/>
       <path id="DejaVuSans-70" d="M 1159 525 
L 1159 -1331 
L 581 -1331 
L 581 3500 
L 1159 3500 
L 1159 2969 
Q 1341 3281 1617 3432 
Q 1894 3584 2278 3584 
Q 2916 3584 3314 3078 
Q 3713 2572 3713 1747 
Q 3713 922 3314 415 
Q 2916 -91 2278 -91 
Q 1894 -91 1617 61 
Q 1341 213 1159 525 
z
M 3116 1747 
Q 3116 2381 2855 2742 
Q 2594 3103 2138 3103 
Q 1681 3103 1420 2742 
Q 1159 2381 1159 1747 
Q 1159 1113 1420 752 
Q 1681 391 2138 391 
Q 2594 391 2855 752 
Q 3116 1113 3116 1747 
z
" transform="scale(0.015625)"/>
       <path id="DejaVuSans-6f" d="M 1959 3097 
Q 1497 3097 1228 2736 
Q 959 2375 959 1747 
Q 959 1119 1226 758 
Q 1494 397 1959 397 
Q 2419 397 2687 759 
Q 2956 1122 2956 1747 
Q 2956 2369 2687 2733 
Q 2419 3097 1959 3097 
z
M 1959 3584 
Q 2709 3584 3137 3096 
Q 3566 2609 3566 1747 
Q 3566 888 3137 398 
Q 2709 -91 1959 -91 
Q 1206 -91 779 398 
Q 353 888 353 1747 
Q 353 2609 779 3096 
Q 1206 3584 1959 3584 
z
" transform="scale(0.015625)"/>
       <path id="DejaVuSans-63" d="M 3122 3366 
L 3122 2828 
Q 2878 2963 2633 3030 
Q 2388 3097 2138 3097 
Q 1578 3097 1268 2742 
Q 959 2388 959 1747 
Q 959 1106 1268 751 
Q 1578 397 2138 397 
Q 2388 397 2633 464 
Q 2878 531 3122 666 
L 3122 134 
Q 2881 22 2623 -34 
Q 2366 -91 2075 -91 
Q 1284 -91 818 406 
Q 353 903 353 1747 
Q 353 2603 823 3093 
Q 1294 3584 2113 3584 
Q 2378 3584 2631 3529 
Q 2884 3475 3122 3366 
z
" transform="scale(0.015625)"/>
       <path id="DejaVuSans-68" d="M 3513 2113 
L 3513 0 
L 2938 0 
L 2938 2094 
Q 2938 2591 2744 2837 
Q 2550 3084 2163 3084 
Q 1697 3084 1428 2787 
Q 1159 2491 1159 1978 
L 1159 0 
L 581 0 
L 581 4863 
L 1159 4863 
L 1159 2956 
Q 1366 3272 1645 3428 
Q 1925 3584 2291 3584 
Q 2894 3584 3203 3211 
Q 3513 2838 3513 2113 
z
" transform="scale(0.015625)"/>
      </defs>
      <use xlink:href="#DejaVuSans-65"/>
      <use xlink:href="#DejaVuSans-70" x="61.523438"/>
      <use xlink:href="#DejaVuSans-6f" x="125"/>
      <use xlink:href="#DejaVuSans-63" x="186.181641"/>
      <use xlink:href="#DejaVuSans-68" x="241.162109"/>
     </g>
    </g>
   </g>
   <g id="matplotlib.axis_2">
    <g id="ytick_1">
     <g id="line2d_15">
      <path d="M 47.81 410.518271 
L 817.2 410.518271 
" clip-path="url(#p85ead68678)" style="fill: none; stroke: #b0b0b0; stroke-opacity: 0.25; stroke-width: 0.8; stroke-linecap: square"/>
     </g>
     <g id="line2d_16">
      <defs>
       <path id="m123b9a9ae9" d="M 0 0 
L -3.5 0 
" style="stroke: #000000; stroke-width: 0.8"/>
      </defs>
      <g>
       <use xlink:href="#m123b9a9ae9" x="47.81" y="410.518271" style="stroke: #000000; stroke-width: 0.8"/>
      </g>
     </g>
     <g id="text_9">
      <!-- 0.0 -->
      <g transform="translate(24.906875 414.31749) scale(0.1 -0.1)">
       <defs>
        <path id="DejaVuSans-2e" d="M 684 794 
L 1344 794 
L 1344 0 
L 684 0 
L 684 794 
z
" transform="scale(0.015625)"/>
       </defs>
       <use xlink:href="#DejaVuSans-30"/>
       <use xlink:href="#DejaVuSans-2e" x="63.623047"/>
       <use xlink:href="#DejaVuSans-30" x="95.410156"/>
      </g>
     </g>
    </g>
    <g id="ytick_2">
     <g id="line2d_17">
      <path d="M 47.81 342.483782 
L 817.2 342.483782 
" clip-path="url(#p85ead68678)" style="fill: none; stroke: #b0b0b0; stroke-opacity: 0.25; stroke-width: 0.8; stroke-linecap: square"/>
     </g>
     <g id="line2d_18">
      <g>
       <use xlink:href="#m123b9a9ae9" x="47.81" y="342.483782" style="stroke: #000000; stroke-width: 0.8"/>
      </g>
     </g>
     <g id="text_10">
      <!-- 0.1 -->
      <g transform="translate(24.906875 346.283001) scale(0.1 -0.1)">
       <use xlink:href="#DejaVuSans-30"/>
       <use xlink:href="#DejaVuSans-2e" x="63.623047"/>
       <use xlink:href="#DejaVuSans-31" x="95.410156"/>
      </g>
     </g>
    </g>
    <g id="ytick_3">
     <g id="line2d_19">
      <path d="M 47.81 274.449293 
L 817.2 274.449293 
" clip-path="url(#p85ead68678)" style="fill: none; stroke: #b0b0b0; stroke-opacity: 0.25; stroke-width: 0.8; stroke-linecap: square"/>
     </g>
     <g id="line2d_20">
      <g>
       <use xlink:href="#m123b9a9ae9" x="47.81" y="274.449293" style="stroke: #000000; stroke-width: 0.8"/>
      </g>
     </g>
     <g id="text_11">
      <!-- 0.2 -->
      <g transform="translate(24.906875 278.248511) scale(0.1 -0.1)">
       <use xlink:href="#DejaVuSans-30"/>
       <use xlink:href="#DejaVuSans-2e" x="63.623047"/>
       <use xlink:href="#DejaVuSans-32" x="95.410156"/>
      </g>
     </g>
    </g>
    <g id="ytick_4">
     <g id="line2d_21">
      <path d="M 47.81 206.414803 
L 817.2 206.414803 
" clip-path="url(#p85ead68678)" style="fill: none; stroke: #b0b0b0; stroke-opacity: 0.25; stroke-width: 0.8; stroke-linecap: square"/>
     </g>
     <g id="line2d_22">
      <g>
       <use xlink:href="#m123b9a9ae9" x="47.81" y="206.414803" style="stroke: #000000; stroke-width: 0.8"/>
      </g>
     </g>
     <g id="text_12">
      <!-- 0.3 -->
      <g transform="translate(24.906875 210.214022) scale(0.1 -0.1)">
       <use xlink:href="#DejaVuSans-30"/>
       <use xlink:href="#DejaVuSans-2e" x="63.623047"/>
       <use xlink:href="#DejaVuSans-33" x="95.410156"/>
      </g>
     </g>
    </g>
    <g id="ytick_5">
     <g id="line2d_23">
      <path d="M 47.81 138.380314 
L 817.2 138.380314 
" clip-path="url(#p85ead68678)" style="fill: none; stroke: #b0b0b0; stroke-opacity: 0.25; stroke-width: 0.8; stroke-linecap: square"/>
     </g>
     <g id="line2d_24">
      <g>
       <use xlink:href="#m123b9a9ae9" x="47.81" y="138.380314" style="stroke: #000000; stroke-width: 0.8"/>
      </g>
     </g>
     <g id="text_13">
      <!-- 0.4 -->
      <g transform="translate(24.906875 142.179533) scale(0.1 -0.1)">
       <use xlink:href="#DejaVuSans-30"/>
       <use xlink:href="#DejaVuSans-2e" x="63.623047"/>
       <use xlink:href="#DejaVuSans-34" x="95.410156"/>
      </g>
     </g>
    </g>
    <g id="ytick_6">
     <g id="line2d_25">
      <path d="M 47.81 70.345825 
L 817.2 70.345825 
" clip-path="url(#p85ead68678)" style="fill: none; stroke: #b0b0b0; stroke-opacity: 0.25; stroke-width: 0.8; stroke-linecap: square"/>
     </g>
     <g id="line2d_26">
      <g>
       <use xlink:href="#m123b9a9ae9" x="47.81" y="70.345825" style="stroke: #000000; stroke-width: 0.8"/>
      </g>
     </g>
     <g id="text_14">
      <!-- 0.5 -->
      <g transform="translate(24.906875 74.145043) scale(0.1 -0.1)">
       <use xlink:href="#DejaVuSans-30"/>
       <use xlink:href="#DejaVuSans-2e" x="63.623047"/>
       <use xlink:href="#DejaVuSans-35" x="95.410156"/>
      </g>
     </g>
    </g>
    <g id="text_15">
     <!-- map5095 -->
     <g transform="translate(18.827187 249.573594) rotate(-90) scale(0.1 -0.1)">
      <defs>
       <path id="DejaVuSans-6d" d="M 3328 2828 
Q 3544 3216 3844 3400 
Q 4144 3584 4550 3584 
Q 5097 3584 5394 3201 
Q 5691 2819 5691 2113 
L 5691 0 
L 5113 0 
L 5113 2094 
Q 5113 2597 4934 2840 
Q 4756 3084 4391 3084 
Q 3944 3084 3684 2787 
Q 3425 2491 3425 1978 
L 3425 0 
L 2847 0 
L 2847 2094 
Q 2847 2600 2669 2842 
Q 2491 3084 2119 3084 
Q 1678 3084 1418 2786 
Q 1159 2488 1159 1978 
L 1159 0 
L 581 0 
L 581 3500 
L 1159 3500 
L 1159 2956 
Q 1356 3278 1631 3431 
Q 1906 3584 2284 3584 
Q 2666 3584 2933 3390 
Q 3200 3197 3328 2828 
z
" transform="scale(0.015625)"/>
       <path id="DejaVuSans-61" d="M 2194 1759 
Q 1497 1759 1228 1600 
Q 959 1441 959 1056 
Q 959 750 1161 570 
Q 1363 391 1709 391 
Q 2188 391 2477 730 
Q 2766 1069 2766 1631 
L 2766 1759 
L 2194 1759 
z
M 3341 1997 
L 3341 0 
L 2766 0 
L 2766 531 
Q 2569 213 2275 61 
Q 1981 -91 1556 -91 
Q 1019 -91 701 211 
Q 384 513 384 1019 
Q 384 1609 779 1909 
Q 1175 2209 1959 2209 
L 2766 2209 
L 2766 2266 
Q 2766 2663 2505 2880 
Q 2244 3097 1772 3097 
Q 1472 3097 1187 3025 
Q 903 2953 641 2809 
L 641 3341 
Q 956 3463 1253 3523 
Q 1550 3584 1831 3584 
Q 2591 3584 2966 3190 
Q 3341 2797 3341 1997 
z
" transform="scale(0.015625)"/>
       <path id="DejaVuSans-39" d="M 703 97 
L 703 672 
Q 941 559 1184 500 
Q 1428 441 1663 441 
Q 2288 441 2617 861 
Q 2947 1281 2994 2138 
Q 2813 1869 2534 1725 
Q 2256 1581 1919 1581 
Q 1219 1581 811 2004 
Q 403 2428 403 3163 
Q 403 3881 828 4315 
Q 1253 4750 1959 4750 
Q 2769 4750 3195 4129 
Q 3622 3509 3622 2328 
Q 3622 1225 3098 567 
Q 2575 -91 1691 -91 
Q 1453 -91 1209 -44 
Q 966 3 703 97 
z
M 1959 2075 
Q 2384 2075 2632 2365 
Q 2881 2656 2881 3163 
Q 2881 3666 2632 3958 
Q 2384 4250 1959 4250 
Q 1534 4250 1286 3958 
Q 1038 3666 1038 3163 
Q 1038 2656 1286 2365 
Q 1534 2075 1959 2075 
z
" transform="scale(0.015625)"/>
      </defs>
      <use xlink:href="#DejaVuSans-6d"/>
      <use xlink:href="#DejaVuSans-61" x="97.412109"/>
      <use xlink:href="#DejaVuSans-70" x="158.691406"/>
      <use xlink:href="#DejaVuSans-35" x="222.167969"/>
      <use xlink:href="#DejaVuSans-30" x="285.791016"/>
      <use xlink:href="#DejaVuSans-39" x="349.414062"/>
      <use xlink:href="#DejaVuSans-35" x="413.037109"/>
     </g>
    </g>
   </g>
   <g id="line2d_27">
    <path d="M 82.782273 377.181372 
L 83.876867 379.201996 
L 84.97146 407.830909 
L 87.160648 376.494223 
L 88.255242 371.010643 
L 89.349836 351.267035 
L 90.44443 347.974165 
L 91.539023 349.20559 
L 92.633617 339.687565 
L 93.728211 334.265216 
L 94.822805 325.604425 
L 95.917399 319.066311 
L 97.011992 320.474625 
L 98.106586 313.875279 
L 99.20118 317.991366 
L 100.295774 307.493644 
L 101.390368 302.629178 
L 102.484962 301.533823 
L 104.674149 292.804998 
L 105.768743 296.077457 
L 106.863337 285.88589 
L 107.957931 287.06969 
L 109.052525 277.429203 
L 110.147118 281.300366 
L 111.241712 269.469168 
L 112.336306 271.666682 
L 113.4309 269.448758 
L 114.525494 264.414205 
L 115.620087 260.597471 
L 116.714681 255.787432 
L 117.809275 257.059677 
L 118.903869 254.324691 
L 119.998463 250.086142 
L 121.093057 245.350942 
L 122.18765 243.180641 
L 123.282244 238.438637 
L 124.376838 240.295979 
L 126.566026 232.934647 
L 127.66062 230.186054 
L 128.755213 229.410461 
L 129.849807 226.45096 
L 130.944401 223.11727 
L 132.038995 222.076343 
L 133.133589 220.804098 
L 135.322776 215.177646 
L 136.41737 214.538121 
L 137.511964 211.374518 
L 138.606558 209.5648 
L 140.795745 206.578086 
L 144.079527 203.945151 
L 145.174121 202.70012 
L 146.268715 200.373341 
L 147.363308 198.835761 
L 148.457902 197.951313 
L 149.552496 196.529392 
L 150.64709 194.563195 
L 151.741684 194.263843 
L 152.836278 193.352181 
L 153.930871 193.365788 
L 156.120059 191.896243 
L 157.214653 191.324754 
L 159.403841 190.481126 
L 160.498434 189.902833 
L 161.593028 188.630588 
L 162.687622 188.059098 
L 164.87681 186.40586 
L 167.065997 185.24247 
L 169.255185 184.47368 
L 170.349779 183.623249 
L 171.444373 182.983725 
L 172.538966 182.473466 
L 173.63356 182.201329 
L 174.728154 181.623035 
L 175.822748 181.507377 
L 178.011936 180.065046 
L 180.201123 179.064939 
L 181.295717 178.289345 
L 185.674092 176.588483 
L 187.86328 175.39788 
L 190.052468 174.669911 
L 192.241655 174.180062 
L 193.336249 173.560948 
L 194.430843 173.24799 
L 196.620031 172.145831 
L 200.998406 171.111707 
L 202.093 170.968834 
L 203.187594 170.417755 
L 204.282187 170.084386 
L 205.376781 170.057172 
L 206.471375 169.247562 
L 207.565969 168.846158 
L 209.755156 168.295079 
L 210.84975 167.655555 
L 213.038938 167.226937 
L 214.133532 166.539789 
L 216.322719 165.941086 
L 217.417313 165.383203 
L 218.511907 165.104261 
L 219.606501 164.655234 
L 220.701095 163.818409 
L 221.795689 163.763982 
L 222.890282 163.532665 
L 223.984876 163.178885 
L 227.268658 161.763768 
L 228.363252 161.450809 
L 229.457845 161.253509 
L 230.552439 160.743251 
L 231.647033 160.50513 
L 232.741627 160.090119 
L 233.836221 160.001675 
L 236.025408 159.416578 
L 237.120002 158.797464 
L 239.30919 157.974247 
L 240.403784 157.538826 
L 241.498377 156.817661 
L 242.592971 156.497898 
L 243.687565 156.40265 
L 244.782159 155.885588 
L 245.876753 155.851571 
L 246.971347 155.361722 
L 248.06594 154.701788 
L 251.349722 153.851357 
L 253.53891 152.926088 
L 254.633503 153.26626 
L 255.728097 152.429436 
L 256.822691 152.007622 
L 257.917285 152.068853 
L 261.201066 150.476846 
L 262.29566 150.265939 
L 263.390254 149.803305 
L 264.484848 149.469936 
L 266.674035 148.585487 
L 267.768629 148.415401 
L 268.863223 147.986784 
L 269.957817 147.728253 
L 272.147005 146.483222 
L 273.241598 146.013784 
L 275.430786 145.666808 
L 277.619974 145.061301 
L 278.714568 144.80277 
L 279.809161 144.401366 
L 280.903755 143.721021 
L 281.998349 143.680201 
L 283.092943 143.197156 
L 284.187537 142.591649 
L 285.28213 142.265083 
L 287.471318 141.128907 
L 288.565912 140.918 
L 291.849693 139.706986 
L 292.944287 139.060659 
L 294.038881 138.618435 
L 295.133475 138.298673 
L 297.322663 136.876752 
L 298.417256 136.502562 
L 301.701038 135.80861 
L 302.795632 135.339172 
L 303.890225 134.720058 
L 304.984819 134.570383 
L 307.174007 133.726755 
L 309.363195 133.019196 
L 310.457788 132.998786 
L 311.552382 132.325244 
L 313.74157 131.726541 
L 314.836164 131.155051 
L 319.214539 129.862396 
L 320.309133 129.617472 
L 321.403727 129.12082 
L 323.592914 128.413261 
L 324.687508 127.712506 
L 325.782102 127.508403 
L 326.876696 127.617258 
L 327.97129 127.14782 
L 329.065883 126.855271 
L 330.160477 126.385833 
L 332.349665 125.746309 
L 333.444259 125.21564 
L 334.538853 125.01834 
L 336.72804 124.263157 
L 341.106416 123.195016 
L 342.201009 122.780006 
L 343.295603 122.018019 
L 344.390197 122.011216 
L 345.484791 122.228926 
L 346.579385 121.691454 
L 347.673979 121.555385 
L 348.768572 121.187998 
L 349.863166 121.085947 
L 350.95776 120.439619 
L 352.052354 120.439619 
L 353.146948 120.092643 
L 354.241541 119.561974 
L 356.430729 118.840809 
L 357.525323 118.13325 
L 358.619917 118.296533 
L 359.714511 117.745453 
L 360.809104 117.629795 
L 365.18748 116.57526 
L 366.282074 116.527636 
L 367.376667 115.486708 
L 368.471261 115.296212 
L 369.565855 115.405067 
L 375.038824 113.364032 
L 376.133418 113.06468 
L 377.228012 112.62926 
L 379.417199 112.25507 
L 380.511793 111.928504 
L 382.700981 111.669973 
L 384.890169 111.24816 
L 385.984762 110.921594 
L 387.079356 110.778722 
L 388.17395 110.492977 
L 389.268544 110.08477 
L 390.363138 109.302373 
L 391.457732 109.159501 
L 392.552325 109.179911 
L 396.930701 108.173001 
L 398.025294 107.73758 
L 399.119888 107.465442 
L 400.214482 106.975594 
L 401.309076 106.689849 
L 402.40367 106.274838 
L 403.498264 106.247625 
L 404.592857 105.791794 
L 405.687451 105.78499 
L 406.782045 105.315552 
L 407.876639 104.710045 
L 410.065827 104.38348 
L 411.16042 104.124949 
L 412.255014 104.152162 
L 413.349608 103.641904 
L 414.444202 103.594279 
L 415.538796 103.118038 
L 416.63339 103.349355 
L 419.917171 103.104431 
L 421.011765 102.696224 
L 422.106359 102.634993 
L 423.200952 102.090717 
L 424.295546 101.818579 
L 425.39014 101.396765 
L 427.579328 101.104217 
L 428.673922 100.832079 
L 429.768515 100.845686 
L 430.863109 100.730027 
L 431.957703 100.138127 
L 433.052297 100.015665 
L 434.146891 99.498603 
L 435.241485 99.525817 
L 437.430672 99.2945 
L 438.525266 99.008755 
L 439.61986 98.607351 
L 440.714454 98.695796 
L 446.187423 97.178627 
L 448.37661 96.811241 
L 449.471204 96.450658 
L 450.565798 96.35541 
L 451.660392 96.00163 
L 452.754986 95.947203 
L 453.84958 95.641048 
L 454.944173 95.538996 
L 456.038767 95.062755 
L 457.133361 95.049148 
L 458.227955 95.260055 
L 459.322549 95.01513 
L 460.417143 94.647744 
L 465.890112 94.083058 
L 466.984706 93.817723 
L 468.079299 93.402713 
L 469.173893 93.402713 
L 470.268487 93.123772 
L 471.363081 93.185003 
L 472.457675 92.940078 
L 473.552268 92.497854 
L 476.83605 92.212109 
L 477.930644 91.708654 
L 483.403613 90.85142 
L 484.498207 90.953471 
L 485.592801 90.47723 
L 486.687394 90.171075 
L 487.781988 90.075826 
L 489.971176 89.660816 
L 491.06577 89.585978 
L 492.160363 89.109737 
L 493.254957 88.946454 
L 494.349551 88.660709 
L 495.444145 88.592675 
L 496.538739 88.211681 
L 497.633333 88.34775 
L 498.727926 87.864706 
L 499.82252 87.681012 
L 500.917114 87.851099 
L 502.011708 87.150343 
L 503.106302 86.987061 
L 504.200896 87.102719 
L 506.390083 87.082309 
L 507.484677 86.850992 
L 509.673865 86.721726 
L 510.768459 86.565247 
L 512.957646 86.592461 
L 514.05224 86.191057 
L 515.146834 86.340733 
L 516.241428 86.13663 
L 517.336021 85.694405 
L 518.430615 85.898509 
L 519.525209 85.395054 
L 522.808991 84.38134 
L 529.376554 83.510498 
L 530.471147 83.122702 
L 531.565741 83.007043 
L 533.754929 82.973026 
L 534.849523 82.755315 
L 535.944117 82.666871 
L 537.03871 82.170219 
L 538.133304 82.074971 
L 539.227898 81.714388 
L 540.322492 81.816439 
L 541.417086 81.653157 
L 542.511679 81.693977 
L 543.606273 81.489874 
L 544.700867 80.884367 
L 546.890055 80.775512 
L 547.984649 80.510177 
L 549.079242 79.843439 
L 551.26843 79.367198 
L 553.457618 79.265146 
L 554.552212 78.829725 
L 555.646805 79.047436 
L 556.741399 78.605212 
L 557.835993 78.339877 
L 558.930587 78.339877 
L 560.025181 78.203808 
L 561.119775 77.632318 
L 564.403556 77.305753 
L 565.49815 77.380591 
L 566.592744 76.502946 
L 567.687337 76.557373 
L 570.971119 75.924653 
L 573.160307 75.291932 
L 574.2549 75.339556 
L 575.349494 74.999384 
L 580.822463 74.563963 
L 581.917057 74.509535 
L 583.011651 74.101328 
L 584.106245 73.815583 
L 585.200839 73.965259 
L 587.390026 73.686318 
L 588.48462 73.747549 
L 589.579214 73.495821 
L 590.673808 73.108025 
L 591.768402 72.863101 
L 593.957589 72.672604 
L 595.052183 72.264397 
L 596.146777 72.441287 
L 597.241371 72.128328 
L 598.335965 71.937832 
L 599.430558 71.46159 
L 600.525152 71.237076 
L 601.619746 70.808459 
L 602.71434 70.835673 
L 603.808934 70.543125 
L 605.998121 70.393449 
L 607.092715 70.039669 
L 608.187309 69.998849 
L 611.47109 69.338914 
L 612.565684 68.815049 
L 613.660278 68.69939 
L 614.754872 68.291183 
L 616.94406 68.359217 
L 618.038653 68.141507 
L 620.227841 68.053062 
L 622.417029 67.250255 
L 624.606216 66.862459 
L 625.70081 66.501876 
L 626.795404 66.556303 
L 627.889998 66.433841 
L 628.984592 66.059652 
L 630.079186 66.148097 
L 632.268373 65.753497 
L 633.362967 65.97801 
L 634.457561 65.576607 
L 635.552155 65.637838 
L 636.646748 65.018724 
L 637.741342 64.603714 
L 638.835936 64.909869 
L 639.93053 64.79421 
L 641.025124 64.488055 
L 642.119718 64.460841 
L 643.214311 64.283952 
L 646.498093 64.215917 
L 647.592687 64.059438 
L 648.687281 63.535572 
L 653.065656 62.270131 
L 654.16025 62.399396 
L 656.349437 61.528555 
L 657.444031 61.725855 
L 658.538625 61.65782 
L 659.633219 61.297237 
L 660.727813 61.06592 
L 661.822406 61.018296 
L 662.917 60.820996 
L 664.011594 60.303934 
L 665.106188 60.147455 
L 666.200782 59.827692 
L 667.295376 59.780068 
L 668.389969 59.419486 
L 669.484563 59.263006 
L 671.673751 58.50102 
L 672.768345 58.616679 
L 673.862939 58.398968 
L 674.957532 58.337737 
L 677.14672 57.881906 
L 678.241314 57.834282 
L 680.430501 57.412468 
L 681.525095 57.017868 
L 682.619689 57.208365 
L 683.714283 57.181151 
L 684.808877 57.290006 
L 686.998064 56.902209 
L 688.092658 56.902209 
L 690.281846 56.718516 
L 692.471034 56.439575 
L 693.565627 56.249078 
L 694.660221 56.181044 
L 695.754815 55.874889 
L 696.849409 55.800051 
L 697.944003 55.56193 
L 700.13319 55.371433 
L 701.227784 55.126509 
L 702.322378 54.725106 
L 704.511566 54.589037 
L 705.606159 54.37813 
L 706.700753 54.459771 
L 713.268316 53.656964 
L 714.36291 53.554913 
L 716.552098 53.724999 
L 717.646692 53.21474 
L 718.741285 53.099081 
L 719.835879 52.82014 
L 720.930473 52.656857 
L 722.025067 52.697678 
L 723.119661 52.411933 
L 725.308848 52.071761 
L 726.403442 51.83364 
L 727.498036 51.908478 
L 728.59263 51.527485 
L 729.687224 51.479861 
L 730.781817 51.282561 
L 731.876411 50.853943 
L 732.971005 50.949192 
L 737.34938 49.908264 
L 738.443974 50.085154 
L 739.538568 49.472843 
L 741.727756 49.037422 
L 742.82235 49.329971 
L 743.916943 48.948978 
L 745.011537 49.064636 
L 746.106131 49.030619 
L 748.295319 48.615609 
L 749.389913 48.527164 
L 750.484506 48.214205 
L 752.673694 47.867229 
L 753.768288 47.377381 
L 754.862882 47.411398 
L 759.241257 46.812695 
L 760.335851 46.438505 
L 761.430445 46.751464 
L 763.619632 45.996281 
L 764.714226 45.832998 
L 765.80882 45.506432 
L 767.998008 45.506432 
L 769.092601 45.227491 
L 770.187195 45.349953 
L 771.281789 44.860105 
L 772.376383 44.656001 
L 773.470977 44.805677 
L 777.849352 43.975656 
L 778.943946 44.098119 
L 780.03854 43.996067 
L 781.133133 43.649091 
L 782.227727 43.928032 
L 782.227727 43.928032 
" clip-path="url(#p85ead68678)" style="fill: none; stroke: #000000; stroke-width: 2.6; stroke-linecap: square"/>
   </g>
   <g id="line2d_28">
    <path d="M 82.782273 375.568954 
L 84.97146 407.293437 
L 86.066054 380.821217 
L 87.160648 384.474669 
L 88.255242 367.955895 
L 90.44443 347.531941 
L 91.539023 345.837882 
L 92.633617 334.782278 
L 93.728211 333.510033 
L 94.822805 329.489195 
L 95.917399 327.128398 
L 97.011992 323.576997 
L 98.106586 316.344931 
L 99.20118 327.039953 
L 100.295774 306.180579 
L 101.390368 306.248613 
L 102.484962 302.697213 
L 103.579555 297.417736 
L 104.674149 288.532432 
L 105.768743 291.376274 
L 106.863337 287.158135 
L 107.957931 289.804677 
L 109.052525 279.946479 
L 110.147118 280.599611 
L 111.241712 273.156637 
L 112.336306 268.564309 
L 113.4309 266.428026 
L 114.525494 265.557185 
L 115.620087 260.230084 
L 116.714681 260.658702 
L 117.809275 256.107194 
L 118.903869 250.276639 
L 119.998463 250.827718 
L 121.093057 245.037983 
L 122.18765 246.201373 
L 123.282244 242.670383 
L 124.376838 237.799113 
L 125.471432 234.009592 
L 126.566026 232.70333 
L 127.66062 231.077306 
L 128.755213 228.308302 
L 129.849807 226.478174 
L 130.944401 222.960791 
L 132.038995 218.722242 
L 133.133589 217.075808 
L 134.228183 215.701511 
L 135.322776 213.245466 
L 136.41737 211.748707 
L 137.511964 210.911883 
L 139.701152 208.115666 
L 140.795745 204.911241 
L 141.890339 202.754548 
L 142.984933 201.91092 
L 144.079527 199.910706 
L 145.174121 199.414054 
L 146.268715 197.100882 
L 148.457902 194.665247 
L 149.552496 193.998509 
L 150.64709 191.841816 
L 151.741684 191.215898 
L 153.930871 188.637391 
L 155.025465 188.392467 
L 156.120059 186.62357 
L 157.214653 186.487501 
L 158.309247 186.215363 
L 160.498434 184.739015 
L 161.593028 184.330808 
L 162.687622 183.432753 
L 163.782216 183.07217 
L 164.87681 181.799925 
L 165.971403 181.058349 
L 167.065997 180.765801 
L 168.160591 179.962994 
L 170.349779 179.282649 
L 171.444373 177.942369 
L 172.538966 177.717856 
L 173.63356 176.826604 
L 176.917342 175.765266 
L 178.011936 175.112135 
L 179.106529 174.309328 
L 181.295717 173.111921 
L 182.390311 173.145938 
L 188.957874 170.397345 
L 190.052468 170.438165 
L 193.336249 168.982227 
L 194.430843 168.696482 
L 195.525437 168.233848 
L 197.714624 167.669162 
L 198.809218 167.403827 
L 199.903812 166.750696 
L 200.998406 166.356096 
L 202.093 166.124779 
L 203.187594 166.015924 
L 209.755156 163.940872 
L 210.84975 163.900051 
L 211.944344 163.519058 
L 213.038938 163.28774 
L 214.133532 162.65502 
L 216.322719 162.090333 
L 217.417313 161.913444 
L 218.511907 161.586878 
L 219.606501 160.974568 
L 221.795689 160.716037 
L 223.984876 159.729537 
L 225.07947 159.266902 
L 227.268658 158.709019 
L 228.363252 158.17835 
L 229.457845 157.96064 
L 230.552439 157.375543 
L 231.647033 157.062585 
L 233.836221 156.103298 
L 234.930814 155.300491 
L 236.025408 154.797036 
L 237.120002 154.524898 
L 238.214596 153.871767 
L 239.30919 153.409133 
L 240.403784 153.157405 
L 241.498377 152.728788 
L 242.592971 152.123281 
L 243.687565 151.994015 
L 245.876753 151.041532 
L 248.06594 150.374794 
L 249.160534 150.123067 
L 250.255128 150.014212 
L 251.349722 149.422312 
L 252.444316 149.014105 
L 253.53891 148.830411 
L 257.917285 147.115942 
L 259.011879 147.007087 
L 260.106472 146.394777 
L 261.201066 146.170263 
L 264.484848 144.455794 
L 265.579442 144.326528 
L 266.674035 143.85709 
L 267.768629 143.63938 
L 268.863223 143.122318 
L 269.957817 142.843376 
L 271.052411 142.82977 
L 274.336192 141.673183 
L 275.430786 141.639166 
L 276.52538 141.414652 
L 277.619974 140.686683 
L 278.714568 140.169621 
L 280.903755 139.407635 
L 281.998349 139.210335 
L 283.092943 138.700076 
L 284.187537 138.400724 
L 285.28213 137.788414 
L 286.376724 137.815628 
L 287.471318 137.210121 
L 288.565912 136.978803 
L 289.660506 136.40051 
L 291.849693 135.699755 
L 292.944287 135.01941 
L 295.133475 134.298245 
L 296.228069 134.25062 
L 297.322663 134.060124 
L 298.417256 133.4206 
L 299.51185 133.230103 
L 300.606444 132.733451 
L 301.701038 132.066713 
L 303.890225 131.440796 
L 304.984819 130.71963 
L 306.079413 130.569955 
L 308.268601 129.957644 
L 309.363195 129.331727 
L 310.457788 128.971144 
L 312.646976 128.522116 
L 313.74157 128.107106 
L 314.836164 127.855378 
L 318.119945 126.515099 
L 319.214539 126.331406 
L 320.309133 126.025251 
L 321.403727 126.208944 
L 322.498321 125.419744 
L 323.592914 124.841451 
L 324.687508 124.848254 
L 325.782102 124.508082 
L 326.876696 123.868557 
L 327.97129 123.446743 
L 330.160477 122.807219 
L 331.255071 122.378602 
L 332.349665 122.07925 
L 333.444259 121.500957 
L 334.538853 121.201605 
L 335.633446 120.664133 
L 336.72804 119.922557 
L 337.822634 119.868129 
L 338.917228 119.29664 
L 340.011822 118.997288 
L 341.106416 118.15366 
L 342.201009 117.929146 
L 343.295603 117.432495 
L 344.390197 117.466512 
L 345.484791 117.16716 
L 346.579385 116.486815 
L 347.673979 116.473208 
L 349.863166 115.643188 
L 350.95776 115.547939 
L 353.146948 114.942432 
L 355.336135 114.472994 
L 356.430729 114.187249 
L 357.525323 114.132822 
L 358.619917 113.697401 
L 359.714511 113.704205 
L 360.809104 113.24157 
L 361.903698 113.098698 
L 364.092886 112.404746 
L 365.18748 111.84006 
L 366.282074 111.547511 
L 367.376667 110.921594 
L 368.471261 110.867166 
L 370.660449 109.982718 
L 371.755043 109.424835 
L 372.849637 109.288766 
L 373.94423 108.812525 
L 376.133418 108.363497 
L 377.228012 107.996111 
L 378.322606 107.431425 
L 379.417199 107.329373 
L 381.606387 106.458532 
L 383.795575 106.084342 
L 385.984762 104.99579 
L 387.079356 104.77808 
L 388.17395 104.301838 
L 389.268544 104.165769 
L 390.363138 103.601083 
L 391.457732 103.410586 
L 394.741513 102.566959 
L 395.836107 102.573762 
L 396.930701 102.240393 
L 398.025294 101.777759 
L 399.119888 101.145038 
L 400.214482 101.097414 
L 401.309076 100.546334 
L 402.40367 100.376248 
L 403.498264 99.940827 
L 404.592857 99.33532 
L 405.687451 99.11761 
L 406.782045 98.573334 
L 408.971233 98.117503 
L 411.16042 97.226251 
L 412.255014 97.137806 
L 414.444202 96.164913 
L 415.538796 96.069665 
L 416.63339 95.715886 
L 417.727983 95.144396 
L 418.822577 95.028737 
L 421.011765 93.858544 
L 422.106359 93.729279 
L 424.295546 92.872044 
L 425.39014 92.790403 
L 427.579328 91.599799 
L 428.673922 92.001203 
L 429.768515 91.524961 
L 430.863109 91.599799 
L 431.957703 90.994292 
L 433.052297 90.749368 
L 434.146891 90.27993 
L 435.241485 89.966971 
L 436.336078 89.334251 
L 437.430672 89.034899 
L 438.525266 89.021292 
L 440.714454 87.987168 
L 441.809048 87.959954 
L 442.903641 87.531337 
L 443.998235 87.266002 
L 445.092829 86.442785 
L 446.187423 86.347536 
L 447.282017 85.993757 
L 449.471204 85.605961 
L 451.660392 84.884795 
L 453.84958 84.585443 
L 454.944173 84.02756 
L 456.038767 84.326912 
L 457.133361 83.782636 
L 458.227955 83.850671 
L 459.322549 83.313198 
L 460.417143 83.292788 
L 461.511736 83.04106 
L 462.60633 82.904991 
L 463.700924 82.884581 
L 466.984706 82.183826 
L 468.079299 81.789226 
L 469.173893 81.517088 
L 470.268487 81.63955 
L 471.363081 81.401429 
L 472.457675 80.986419 
L 475.741456 80.448946 
L 477.930644 79.795815 
L 479.025238 79.714174 
L 480.119831 79.795815 
L 481.214425 79.285556 
L 482.309019 79.339984 
L 483.403613 78.945384 
L 484.498207 79.169898 
L 485.592801 78.618818 
L 486.687394 78.686853 
L 487.781988 78.435125 
L 489.971176 78.271843 
L 491.06577 78.060936 
L 492.160363 77.673139 
L 493.254957 77.639122 
L 494.349551 77.394198 
L 496.538739 77.183291 
L 497.633333 77.31936 
L 498.727926 76.781887 
L 499.82252 76.659425 
L 500.917114 76.360073 
L 502.011708 75.822601 
L 503.106302 75.802191 
L 504.200896 75.421197 
L 506.390083 75.36677 
L 507.484677 74.836101 
L 508.579271 75.019794 
L 509.673865 75.033401 
L 511.863052 74.727246 
L 512.957646 74.366663 
L 515.146834 74.087721 
L 516.241428 73.563856 
L 517.336021 73.835994 
L 518.430615 73.550249 
L 519.525209 73.842797 
L 520.619803 73.795173 
L 521.714397 73.420983 
L 522.808991 73.250897 
L 523.903584 73.271308 
L 526.092772 72.856297 
L 527.187366 72.829083 
L 528.28196 72.155542 
L 530.471147 72.101114 
L 532.660335 71.85619 
L 532.660335 71.85619 
" clip-path="url(#p85ead68678)" style="fill: none; stroke: #1f77b4; stroke-width: 1.8; stroke-linecap: square"/>
   </g>
   <g id="line2d_29">
    <path d="M 82.782273 370.371119 
L 83.876867 389.890214 
L 84.97146 398.612236 
L 86.066054 386.270779 
L 87.160648 370.003733 
L 89.349836 352.16509 
L 90.44443 353.240035 
L 91.539023 342.191234 
L 92.633617 337.415213 
L 93.728211 327.441356 
L 94.822805 327.727101 
L 95.917399 318.454 
L 97.011992 322.263932 
L 98.106586 325.658853 
L 99.20118 308.180793 
L 100.295774 304.370861 
L 101.390368 303.248292 
L 102.484962 299.043761 
L 103.579555 297.717088 
L 104.674149 291.131349 
L 105.768743 298.132098 
L 106.863337 279.708359 
L 107.957931 288.743339 
L 109.052525 276.170565 
L 110.147118 280.041728 
L 111.241712 275.88482 
L 112.336306 275.061603 
L 113.4309 266.08105 
L 114.525494 263.788288 
L 115.620087 257.821663 
L 116.714681 259.298012 
L 117.809275 253.168104 
L 118.903869 250.827718 
L 119.998463 246.582366 
L 121.093057 247.296728 
L 122.18765 244.269193 
L 123.282244 238.962503 
L 124.376838 239.7449 
L 125.471432 233.444906 
L 126.566026 233.825899 
L 127.66062 231.621582 
L 128.755213 230.451388 
L 129.849807 226.491781 
L 130.944401 223.083253 
L 132.038995 221.661332 
L 133.133589 215.721921 
L 134.228183 216.347839 
L 135.322776 214.912311 
L 136.41737 211.687476 
L 137.511964 210.816635 
L 138.606558 209.142986 
L 139.701152 207.673441 
L 140.795745 207.319662 
L 141.890339 205.24461 
L 142.984933 205.033703 
L 144.079527 202.468803 
L 146.268715 199.869885 
L 147.363308 198.060168 
L 148.457902 196.481768 
L 151.741684 193.27054 
L 158.309247 188.310826 
L 159.403841 187.460395 
L 160.498434 186.317415 
L 162.687622 184.351218 
L 167.065997 182.432646 
L 168.160591 182.078866 
L 169.255185 181.221632 
L 170.349779 180.54809 
L 171.444373 179.588804 
L 172.538966 179.12617 
L 173.63356 178.37779 
L 174.728154 177.921959 
L 176.917342 177.262025 
L 179.106529 176.363969 
L 180.201123 176.044207 
L 183.484905 174.785569 
L 184.579499 174.554252 
L 185.674092 174.112028 
L 186.768686 173.805873 
L 191.147061 171.737624 
L 192.241655 171.819265 
L 193.336249 171.281793 
L 194.430843 170.975638 
L 199.903812 168.778124 
L 207.565969 166.614627 
L 208.660563 166.145189 
L 209.755156 165.879855 
L 210.84975 165.151885 
L 211.944344 164.84573 
L 213.038938 164.070137 
L 214.133532 163.777589 
L 215.228126 163.09044 
L 216.322719 162.770678 
L 218.511907 162.49854 
L 221.795689 161.09703 
L 223.984876 159.947247 
L 225.07947 159.573057 
L 226.174064 159.36215 
L 227.268658 158.96755 
L 228.363252 158.409668 
L 229.457845 158.096709 
L 230.552439 157.334723 
L 233.836221 156.484292 
L 234.930814 156.627164 
L 236.025408 155.98764 
L 237.120002 155.824357 
L 238.214596 155.014747 
L 239.30919 154.422847 
L 240.403784 154.143905 
L 241.498377 153.694877 
L 244.782159 153.171012 
L 245.876753 152.524684 
L 246.971347 152.136888 
L 248.06594 151.442936 
L 250.255128 150.497256 
L 252.444316 149.980194 
L 253.53891 149.109353 
L 254.633503 148.803198 
L 255.728097 148.116049 
L 256.822691 147.816698 
L 259.011879 147.422098 
L 261.201066 146.340349 
L 262.29566 145.673611 
L 263.390254 145.796073 
L 265.579442 144.938839 
L 266.674035 144.864001 
L 267.768629 144.01357 
L 268.863223 143.891108 
L 269.957817 143.299207 
L 276.52538 141.264976 
L 277.619974 141.217352 
L 278.714568 140.537007 
L 283.092943 138.740897 
L 286.376724 137.325779 
L 287.471318 136.727076 
L 288.565912 136.298459 
L 289.660506 136.053534 
L 291.849693 135.835824 
L 294.038881 135.080641 
L 295.133475 134.509151 
L 296.228069 134.536365 
L 298.417256 133.332155 
L 299.51185 132.835503 
L 302.795632 131.787772 
L 303.890225 131.209479 
L 304.984819 130.984965 
L 306.079413 130.52233 
L 308.268601 129.862396 
L 309.363195 129.440582 
L 311.552382 128.773844 
L 312.646976 128.107106 
L 313.74157 127.766934 
L 314.836164 127.141016 
L 315.930758 126.746416 
L 317.025351 126.025251 
L 318.119945 126.106892 
L 319.214539 125.58983 
L 320.309133 125.685078 
L 321.403727 125.120392 
L 322.498321 124.943502 
L 323.592914 124.548902 
L 324.687508 124.542099 
L 325.782102 123.83454 
L 326.876696 123.63724 
L 327.97129 123.256247 
L 329.065883 123.147392 
L 331.255071 122.147285 
L 333.444259 121.698257 
L 334.538853 121.215212 
L 335.633446 120.909057 
L 337.822634 120.704954 
L 343.295603 118.752364 
L 344.390197 118.561867 
L 345.484791 118.595884 
L 346.579385 118.044805 
L 348.768572 117.75906 
L 350.95776 116.786167 
L 352.052354 116.684115 
L 355.336135 115.745239 
L 357.525323 114.833577 
L 358.619917 114.826774 
L 359.714511 114.452584 
L 360.809104 114.234874 
L 361.903698 113.574939 
L 362.998292 113.173536 
L 364.092886 113.26198 
L 365.18748 113.091894 
L 366.282074 112.520405 
L 367.376667 112.323104 
L 370.660449 110.887577 
L 371.755043 110.574618 
L 372.849637 110.540601 
L 375.038824 110.023539 
L 377.228012 108.92138 
L 378.322606 108.819328 
L 380.511793 108.207018 
L 381.606387 108.275052 
L 383.795575 107.581101 
L 384.890169 107.091252 
L 385.984762 106.900756 
L 387.079356 106.424514 
L 388.17395 106.336069 
L 390.363138 105.512852 
L 391.457732 104.852918 
L 392.552325 104.329052 
L 393.646919 104.254214 
L 394.741513 103.764366 
L 395.836107 103.526245 
L 396.930701 103.084021 
L 400.214482 102.247197 
L 401.309076 101.975059 
L 402.40367 101.478407 
L 403.498264 101.179055 
L 404.592857 100.539531 
L 405.687451 100.246983 
L 406.782045 99.729921 
L 407.876639 99.784348 
L 408.971233 99.212858 
L 410.065827 99.11761 
L 412.255014 98.280786 
L 413.349608 98.124307 
L 414.444202 97.824955 
L 415.538796 97.729707 
L 416.63339 97.477979 
L 418.822577 96.681975 
L 419.917171 96.348606 
L 421.011765 96.192127 
L 422.106359 95.919989 
L 424.295546 95.103575 
L 426.484734 94.518479 
L 427.579328 94.60012 
L 429.768515 94.239537 
L 430.863109 93.797313 
L 431.957703 93.586406 
L 434.146891 92.531872 
L 436.336078 92.082844 
L 439.61986 91.334465 
L 440.714454 91.137164 
L 441.809048 90.579282 
L 442.903641 90.205092 
L 443.998235 90.286733 
L 446.187423 89.681226 
L 447.282017 89.225395 
L 448.37661 88.892026 
L 450.565798 88.640299 
L 451.660392 87.987168 
L 452.754986 87.823885 
L 453.84958 87.510926 
L 456.038767 87.279609 
L 459.322549 85.93933 
L 460.417143 85.925723 
L 461.511736 85.442678 
L 462.60633 85.374643 
L 463.700924 84.843974 
L 465.890112 84.299698 
L 466.984706 84.320109 
L 468.079299 83.78944 
L 469.173893 83.619353 
L 470.268487 83.605747 
L 474.646862 82.82335 
L 475.741456 82.05456 
L 477.930644 82.700888 
L 479.025238 82.163415 
L 481.214425 81.693977 
L 482.309019 81.727995 
L 485.592801 81.142898 
L 486.687394 80.530588 
L 487.781988 80.516981 
L 488.876582 80.353698 
L 489.971176 80.462553 
L 491.06577 80.122381 
L 492.160363 80.074757 
L 494.349551 79.31277 
L 495.444145 79.258343 
L 496.538739 78.972598 
L 497.633333 79.047436 
L 500.917114 78.414715 
L 503.106302 78.489553 
L 504.200896 77.843225 
L 505.295489 77.639122 
L 506.390083 77.775191 
L 510.768459 77.108453 
L 511.863052 76.938367 
L 512.957646 76.400894 
L 514.05224 76.366877 
L 515.146834 76.17638 
L 516.241428 76.142363 
L 517.336021 76.224004 
L 518.430615 76.183184 
L 519.525209 75.700139 
L 520.619803 75.638908 
L 521.714397 75.115042 
L 526.092772 74.523142 
L 527.187366 74.033294 
L 529.376554 73.80878 
L 531.565741 73.067204 
L 532.660335 73.026383 
L 533.754929 72.693014 
L 534.849523 72.733835 
L 535.944117 72.114721 
L 537.03871 72.189559 
L 538.133304 71.999063 
L 540.322492 71.447983 
L 541.417086 70.903707 
L 542.511679 70.65198 
L 544.700867 70.386645 
L 546.890055 70.012456 
L 547.984649 69.86278 
L 550.173836 69.325307 
L 552.363024 68.930707 
L 553.457618 68.828655 
L 554.552212 68.5225 
L 555.646805 68.604142 
L 556.741399 68.311593 
L 557.835993 68.134704 
L 558.930587 67.801335 
L 561.119775 67.706086 
L 562.214368 67.16181 
L 563.308962 67.073366 
L 565.49815 66.440645 
L 566.592744 66.080062 
L 567.687337 66.270559 
L 569.876525 65.753497 
L 570.971119 65.787514 
L 572.065713 65.522179 
L 573.160307 65.58341 
L 575.349494 64.95069 
L 577.538682 64.807817 
L 578.633276 64.256738 
L 579.72787 63.848531 
L 580.822463 63.603607 
L 581.917057 63.882548 
L 587.390026 62.957279 
L 588.48462 62.419807 
L 590.673808 62.2089 
L 593.957589 61.467324 
L 595.052183 61.610196 
L 596.146777 61.623803 
L 597.241371 61.025099 
L 598.335965 61.120348 
L 599.430558 60.698534 
L 601.619746 60.49443 
L 602.71434 60.222293 
L 604.903528 59.990975 
L 605.998121 59.514734 
L 607.092715 59.331041 
L 608.187309 59.004475 
L 610.376497 58.773158 
L 611.47109 58.208472 
L 612.565684 58.208472 
L 614.754872 58.051992 
L 616.94406 57.997565 
L 618.038653 57.446485 
L 619.133247 57.480503 
L 622.417029 56.317113 
L 623.511623 56.52802 
L 628.984592 55.806854 
L 631.173779 55.466682 
L 632.268373 55.514306 
L 633.362967 55.323809 
L 635.552155 55.419058 
L 639.93053 55.031261 
L 641.025124 55.024458 
L 642.119718 54.738713 
L 643.214311 54.915602 
L 644.308905 54.718302 
L 645.403499 54.031154 
L 646.498093 54.412147 
L 647.592687 54.119599 
L 648.687281 53.990333 
L 649.781874 53.670571 
L 650.876468 53.561716 
L 651.971062 53.309988 
L 653.065656 53.459664 
L 654.16025 52.949406 
L 655.254844 53.309988 
L 657.444031 52.786123 
L 659.633219 52.684071 
L 660.727813 52.337095 
L 661.822406 52.479968 
L 662.917 52.22824 
L 664.011594 52.357506 
L 666.200782 51.425433 
L 670.579157 51.051243 
L 671.673751 50.500164 
L 673.862939 50.248436 
L 673.862939 50.248436 
" clip-path="url(#p85ead68678)" style="fill: none; stroke: #ff7f0e; stroke-width: 1.8; stroke-linecap: square"/>
   </g>
   <g id="line2d_30">
    <path d="M 82.782273 374.73213 
L 83.876867 384.134496 
L 84.97146 396.714074 
L 86.066054 378.542061 
L 87.160648 377.405885 
L 88.255242 366.146177 
L 89.349836 371.235157 
L 90.44443 358.812059 
L 91.539023 339.109271 
L 92.633617 334.863919 
L 93.728211 328.393839 
L 94.822805 330.897509 
L 95.917399 319.011883 
L 97.011992 324.828832 
L 98.106586 323.556587 
L 99.20118 312.984027 
L 100.295774 304.90153 
L 101.390368 311.562107 
L 102.484962 303.044189 
L 103.579555 297.002726 
L 105.768743 287.437077 
L 106.863337 288.573253 
L 107.957931 285.062673 
L 109.052525 284.68168 
L 110.147118 278.266028 
L 111.241712 273.068193 
L 112.336306 272.367437 
L 114.525494 262.454812 
L 115.620087 262.080623 
L 116.714681 259.556543 
L 117.809275 255.896287 
L 118.903869 248.99759 
L 119.998463 249.160873 
L 121.093057 245.05159 
L 122.18765 243.71131 
L 123.282244 240.350407 
L 124.376838 240.75181 
L 125.471432 236.186696 
L 126.566026 233.968771 
L 127.66062 234.47903 
L 128.755213 231.662402 
L 129.849807 229.811864 
L 130.944401 224.001719 
L 132.038995 223.437033 
L 133.133589 218.422891 
L 134.228183 217.449997 
L 135.322776 216.048487 
L 136.41737 215.851187 
L 138.606558 211.163611 
L 139.701152 210.843849 
L 140.795745 207.122362 
L 141.890339 206.108648 
L 142.984933 204.924848 
L 144.079527 204.292127 
L 145.174121 202.509624 
L 146.268715 201.29861 
L 147.363308 199.842672 
L 148.457902 197.447858 
L 149.552496 196.80153 
L 150.64709 194.971402 
L 151.741684 194.45434 
L 152.836278 193.746781 
L 153.930871 192.794299 
L 155.025465 191.256719 
L 156.120059 190.583178 
L 157.214653 190.385878 
L 158.309247 189.889226 
L 160.498434 188.20197 
L 161.593028 187.827781 
L 162.687622 187.331129 
L 163.782216 186.97735 
L 165.971403 185.453377 
L 168.160591 184.296791 
L 169.255185 183.922601 
L 170.349779 183.085777 
L 171.444373 182.67757 
L 172.538966 181.942797 
L 173.63356 181.398522 
L 174.728154 180.997118 
L 175.822748 180.384808 
L 176.917342 180.167097 
L 178.011936 179.745283 
L 180.201123 178.57509 
L 181.295717 177.758676 
L 183.484905 177.180383 
L 185.674092 176.289131 
L 186.768686 175.2414 
L 187.86328 174.976066 
L 188.957874 174.554252 
L 191.147061 174.105224 
L 195.525437 172.098207 
L 199.903812 170.227258 
L 200.998406 169.676179 
L 202.093 169.274776 
L 203.187594 168.662465 
L 204.282187 168.989031 
L 205.376781 168.390327 
L 206.471375 167.927693 
L 207.565969 167.294972 
L 209.755156 165.859444 
L 210.84975 165.59411 
L 211.944344 164.811713 
L 213.038938 164.723268 
L 215.228126 163.791196 
L 216.322719 163.097244 
L 217.417313 162.838713 
L 220.701095 161.627699 
L 225.07947 160.301026 
L 226.174064 159.879213 
L 227.268658 159.722733 
L 228.363252 158.92673 
L 229.457845 158.606968 
L 231.647033 158.362043 
L 233.836221 157.239474 
L 234.930814 156.919712 
L 237.120002 155.769929 
L 238.214596 155.429757 
L 239.30919 155.212047 
L 240.403784 154.831053 
L 241.498377 154.164315 
L 243.687565 153.429543 
L 246.971347 151.68786 
L 248.06594 151.395312 
L 251.349722 149.578791 
L 252.444316 149.347474 
L 257.917285 146.748556 
L 259.011879 146.57847 
L 260.106472 146.020587 
L 261.201066 145.782466 
L 263.390254 144.727932 
L 265.579442 144.292511 
L 267.768629 143.156335 
L 268.863223 142.952232 
L 269.957817 142.904607 
L 271.052411 142.680094 
L 273.241598 141.9045 
L 275.430786 140.843162 
L 277.619974 140.196835 
L 278.714568 139.462062 
L 279.809161 139.407635 
L 281.998349 138.319083 
L 283.092943 137.631935 
L 285.28213 136.99241 
L 287.471318 135.96509 
L 289.660506 135.121462 
L 290.7551 134.44792 
L 295.133475 133.168872 
L 297.322663 132.284424 
L 298.417256 131.896627 
L 299.51185 131.849003 
L 301.701038 130.862503 
L 303.890225 129.88961 
L 306.079413 129.454189 
L 310.457788 127.256675 
L 311.552382 127.072982 
L 312.646976 126.77363 
L 313.74157 126.052464 
L 314.836164 126.025251 
L 315.930758 125.827951 
L 317.025351 125.120392 
L 318.119945 124.589723 
L 319.214539 124.269961 
L 320.309133 123.752899 
L 322.498321 123.358299 
L 324.687508 122.65074 
L 325.782102 121.677847 
L 327.97129 121.09275 
L 330.160477 120.221909 
L 332.349665 119.228605 
L 333.444259 118.868022 
L 334.538853 118.956467 
L 335.633446 118.371371 
L 336.72804 117.963164 
L 338.917228 117.854308 
L 341.106416 116.622884 
L 342.201009 116.316729 
L 343.295603 115.615974 
L 344.390197 115.323425 
L 345.484791 114.629474 
L 346.579385 114.350532 
L 347.673979 114.343729 
L 348.768572 113.887898 
L 349.863166 113.255177 
L 350.95776 113.193946 
L 353.146948 112.506798 
L 354.241541 112.098591 
L 355.336135 111.894487 
L 357.525323 111.241356 
L 358.619917 111.044056 
L 359.714511 110.254856 
L 360.809104 109.941897 
L 361.903698 109.758204 
L 362.998292 109.030235 
L 365.18748 108.417925 
L 366.282074 108.302266 
L 367.376667 107.744383 
L 368.471261 107.642332 
L 372.849637 105.737366 
L 377.228012 104.594386 
L 378.322606 104.070521 
L 379.417199 103.920845 
L 381.606387 103.002379 
L 385.984762 101.587262 
L 387.079356 101.389962 
L 388.17395 100.927328 
L 389.268544 100.804865 
L 391.457732 99.8864 
L 392.552325 99.648279 
L 393.646919 99.280893 
L 395.836107 98.947524 
L 396.930701 98.382838 
L 398.025294 98.273982 
L 399.119888 97.981434 
L 400.214482 97.464372 
L 401.309076 97.348713 
L 402.40367 96.954113 
L 403.498264 96.879275 
L 404.592857 96.586727 
L 405.687451 95.96081 
L 406.782045 95.96081 
L 407.876639 95.511782 
L 408.971233 95.205627 
L 410.065827 94.756599 
L 411.16042 94.123879 
L 412.255014 93.865348 
L 413.349608 93.389106 
L 414.444202 93.518372 
L 417.727983 92.218913 
L 419.917171 91.83792 
L 421.011765 91.48414 
L 422.106359 91.490944 
L 425.39014 90.592889 
L 426.484734 90.25952 
L 427.579328 90.368375 
L 429.768515 90.939864 
L 430.863109 90.205092 
L 431.957703 90.205092 
L 434.146891 89.640406 
L 436.336078 89.381875 
L 437.430672 88.892026 
L 439.61986 88.687923 
L 440.714454 88.13004 
L 441.809048 88.096023 
L 443.998235 87.470106 
L 447.282017 86.33393 
L 449.471204 85.56514 
L 450.565798 85.626371 
L 451.660392 85.299805 
L 452.754986 84.667085 
L 453.84958 84.238467 
L 454.944173 84.388143 
L 456.038767 84.177236 
L 457.133361 84.156826 
L 458.227955 83.741815 
L 459.322549 83.524105 
L 460.417143 83.544515 
L 461.511736 83.292788 
L 463.700924 82.932205 
L 464.795518 82.734905 
L 468.079299 82.469571 
L 469.173893 82.081774 
L 470.268487 82.013739 
L 471.363081 81.605533 
L 472.457675 81.367412 
L 473.552268 81.537498 
L 474.646862 81.142898 
L 475.741456 81.319788 
L 476.83605 80.87076 
L 479.025238 80.482963 
L 482.309019 79.775405 
L 483.403613 79.680156 
L 485.592801 78.938581 
L 488.876582 78.666443 
L 489.971176 78.822922 
L 491.06577 78.809315 
L 492.160363 78.060936 
L 494.349551 77.16288 
L 498.727926 76.904349 
L 499.82252 76.496142 
L 500.917114 76.217201 
L 502.011708 76.101542 
L 503.106302 75.679729 
L 504.200896 75.829404 
L 505.295489 75.706942 
L 506.390083 75.244308 
L 507.484677 75.285128 
L 509.673865 74.958563 
L 510.768459 74.666015 
L 511.863052 74.720442 
L 512.957646 74.339449 
L 516.241428 74.02649 
L 517.336021 74.142149 
L 518.430615 73.659104 
L 519.525209 73.441394 
L 520.619803 73.094418 
L 521.714397 73.182863 
L 522.808991 73.033187 
L 523.903584 72.767852 
L 524.998178 72.203166 
L 526.092772 72.223576 
L 527.187366 71.81537 
L 528.28196 71.85619 
L 529.376554 71.26429 
L 530.471147 71.271094 
L 537.03871 70.1009 
L 538.133304 70.046473 
L 539.227898 70.121311 
L 540.322492 69.998849 
L 541.417086 70.06008 
L 543.606273 69.719907 
L 544.700867 69.631462 
L 545.795461 69.134811 
L 546.890055 68.855869 
L 547.984649 68.359217 
L 549.079242 67.985028 
L 551.26843 67.998635 
L 554.552212 67.570017 
L 556.741399 67.651659 
L 557.835993 67.923797 
L 558.930587 67.740104 
L 560.025181 67.692479 
L 561.119775 68.019045 
L 562.214368 67.481573 
L 563.308962 67.263862 
L 566.592744 67.134597 
L 568.781931 66.637945 
L 569.876525 66.678766 
L 572.065713 66.229738 
L 573.160307 66.195721 
L 574.2549 65.705872 
L 577.538682 64.889458 
L 578.633276 64.828227 
L 579.72787 64.440431 
L 580.822463 64.358789 
L 581.917057 64.100258 
L 583.011651 64.079848 
L 584.106245 63.923369 
L 585.200839 63.603607 
L 588.48462 63.426717 
L 590.673808 63.011707 
L 591.768402 62.916458 
L 592.862995 62.610303 
L 596.146777 62.256524 
L 597.241371 62.256524 
L 598.335965 61.542162 
L 600.525152 61.072724 
L 601.619746 61.133955 
L 602.71434 60.705337 
L 603.808934 60.521644 
L 605.998121 59.800479 
L 607.092715 59.814086 
L 608.187309 59.977368 
L 609.281903 59.90253 
L 615.849466 58.330934 
L 616.94406 57.807068 
L 618.038653 57.460092 
L 620.227841 57.290006 
L 622.417029 56.711713 
L 623.511623 56.596054 
L 626.795404 55.800051 
L 628.984592 55.670785 
L 630.079186 55.58234 
L 631.173779 55.140116 
L 633.362967 54.799944 
L 634.457561 54.704695 
L 635.552155 54.493789 
L 636.646748 54.031154 
L 638.835936 53.548109 
L 638.835936 53.548109 
" clip-path="url(#p85ead68678)" style="fill: none; stroke: #2ca02c; stroke-width: 1.8; stroke-linecap: square"/>
   </g>
   <g id="line2d_31">
    <path d="M 82.782273 394.176387 
L 83.876867 392.36667 
L 84.97146 403.78966 
L 86.066054 389.379956 
L 87.160648 386.175531 
L 88.255242 356.852666 
L 89.349836 357.118001 
L 90.44443 349.294034 
L 91.539023 356.825452 
L 92.633617 341.687779 
L 93.728211 341.55171 
L 94.822805 330.326019 
L 95.917399 323.787904 
L 97.011992 336.381088 
L 98.106586 313.861672 
L 99.20118 315.147524 
L 100.295774 314.800548 
L 101.390368 304.234792 
L 102.484962 303.153044 
L 103.579555 296.594519 
L 104.674149 295.158991 
L 105.768743 297.64225 
L 106.863337 288.763749 
L 107.957931 289.151546 
L 109.052525 282.70868 
L 110.147118 279.293348 
L 111.241712 269.482775 
L 112.336306 270.877482 
L 113.4309 271.945623 
L 114.525494 260.651898 
L 115.620087 257.461081 
L 116.714681 255.392832 
L 117.809275 255.188729 
L 119.998463 246.759255 
L 121.093057 241.704293 
L 122.18765 239.622438 
L 123.282244 235.275034 
L 125.471432 230.920826 
L 126.566026 228.240267 
L 127.66062 228.859381 
L 128.755213 225.015433 
L 129.849807 221.770188 
L 130.944401 217.953453 
L 132.038995 215.313715 
L 133.133589 213.1162 
L 134.228183 214.388445 
L 135.322776 211.313287 
L 136.41737 209.694066 
L 137.511964 209.238235 
L 138.606558 206.081434 
L 139.701152 202.577658 
L 140.795745 202.10822 
L 141.890339 199.407251 
L 142.984933 198.944616 
L 144.079527 196.379716 
L 145.174121 195.447644 
L 148.457902 191.161471 
L 149.552496 190.045705 
L 150.64709 188.480912 
L 153.930871 185.650677 
L 156.120059 184.330808 
L 157.214653 183.459967 
L 158.309247 182.017635 
L 159.403841 181.480163 
L 162.687622 178.615911 
L 165.971403 177.738266 
L 167.065997 176.670125 
L 168.160591 176.357166 
L 169.255185 175.901335 
L 170.349779 175.860514 
L 171.444373 174.758355 
L 172.538966 174.302524 
L 174.728154 173.731035 
L 176.917342 172.832979 
L 179.106529 172.220669 
L 180.201123 171.683196 
L 181.295717 170.962031 
L 183.484905 170.172831 
L 186.768686 169.220348 
L 188.957874 167.682768 
L 191.147061 166.934389 
L 192.241655 166.682661 
L 193.336249 166.18601 
L 194.430843 165.981906 
L 196.620031 165.24033 
L 197.714624 164.614413 
L 198.809218 164.362685 
L 200.998406 163.519058 
L 202.093 162.967978 
L 204.282187 162.607396 
L 205.376781 162.47813 
L 206.471375 162.10394 
L 208.660563 161.566468 
L 210.84975 160.824892 
L 211.944344 160.267009 
L 213.038938 159.981264 
L 214.133532 159.498219 
L 215.228126 159.260099 
L 218.511907 157.804161 
L 219.606501 157.56604 
L 220.701095 157.055781 
L 221.795689 157.008157 
L 222.890282 156.18494 
L 223.984876 155.905998 
L 226.174064 154.586129 
L 229.457845 153.136995 
L 231.647033 152.640343 
L 232.741627 152.27976 
L 236.025408 151.640236 
L 238.214596 150.313563 
L 239.30919 150.259136 
L 240.403784 149.742074 
L 241.498377 149.571987 
L 243.687565 148.388187 
L 244.782159 148.15687 
L 245.876753 147.735056 
L 248.06594 147.286029 
L 251.349722 146.469615 
L 252.444316 145.762056 
L 253.53891 145.557953 
L 254.633503 145.122532 
L 255.728097 144.925232 
L 256.822691 144.523828 
L 257.917285 143.700611 
L 259.011879 143.346832 
L 260.106472 142.741325 
L 261.201066 141.965732 
L 265.579442 140.5234 
L 266.674035 139.985928 
L 267.768629 139.809038 
L 268.863223 139.237548 
L 272.147005 138.870162 
L 273.241598 138.366707 
L 274.336192 138.291869 
L 275.430786 137.659148 
L 277.619974 137.040034 
L 279.809161 136.046731 
L 280.903755 135.999107 
L 281.998349 135.645327 
L 283.092943 135.529669 
L 284.187537 135.284745 
L 285.28213 134.692845 
L 286.376724 134.64522 
L 287.471318 134.366279 
L 288.565912 133.590686 
L 289.660506 133.522651 
L 290.7551 132.774272 
L 291.849693 132.692631 
L 292.944287 132.250406 
L 294.038881 132.005482 
L 295.133475 131.148248 
L 296.228069 130.814879 
L 297.322663 130.685613 
L 298.417256 129.814772 
L 300.606444 129.243282 
L 302.795632 129.018768 
L 303.890225 128.467689 
L 304.984819 128.236372 
L 306.079413 127.807754 
L 307.174007 127.671685 
L 308.268601 127.358727 
L 309.363195 126.882485 
L 311.552382 126.215747 
L 313.74157 125.161213 
L 314.836164 125.038751 
L 315.930758 124.385619 
L 318.119945 123.902575 
L 319.214539 123.283461 
L 321.403727 122.65074 
L 322.498321 122.330978 
L 323.592914 121.793505 
L 324.687508 121.453333 
L 325.782102 121.453333 
L 326.876696 121.262836 
L 327.97129 120.643723 
L 329.065883 120.296747 
L 330.160477 120.201498 
L 331.255071 119.657222 
L 332.349665 119.255819 
L 333.444259 118.711543 
L 341.106416 116.684115 
L 342.201009 116.514029 
L 343.295603 115.915326 
L 344.390197 115.622777 
L 345.484791 115.629581 
L 346.579385 115.432281 
L 347.673979 114.738329 
L 349.863166 114.126018 
L 350.95776 113.466084 
L 353.146948 112.534011 
L 354.241541 112.207446 
L 357.525323 110.744704 
L 358.619917 110.540601 
L 361.903698 109.281963 
L 362.998292 109.125483 
L 364.092886 108.819328 
L 367.376667 107.349783 
L 368.471261 106.839525 
L 369.565855 106.57419 
L 370.660449 106.125163 
L 371.755043 106.206804 
L 372.849637 105.887042 
L 373.94423 105.363176 
L 375.038824 104.553566 
L 376.133418 104.267821 
L 377.228012 103.716742 
L 379.417199 103.050004 
L 381.606387 102.791473 
L 383.795575 102.219983 
L 384.890169 101.48521 
L 387.079356 100.89331 
L 388.17395 100.798062 
L 389.268544 100.342231 
L 390.363138 100.328624 
L 391.457732 100.144931 
L 392.552325 99.818365 
L 393.646919 99.729921 
L 394.741513 99.233269 
L 398.025294 98.736617 
L 399.119888 98.784241 
L 400.214482 98.287589 
L 402.40367 97.634458 
L 404.592857 96.709189 
L 405.687451 96.586727 
L 408.971233 95.56621 
L 411.16042 95.477765 
L 412.255014 95.185217 
L 413.349608 94.450444 
L 415.538796 94.144289 
L 416.63339 93.926579 
L 418.822577 93.008113 
L 419.917171 92.681547 
L 421.011765 92.640727 
L 422.106359 92.008006 
L 423.200952 91.967185 
L 425.39014 90.837813 
L 426.484734 90.89224 
L 428.673922 90.184682 
L 430.863109 89.898937 
L 434.146891 89.041702 
L 435.241485 88.973668 
L 436.336078 89.177771 
L 437.430672 88.905633 
L 438.525266 88.395375 
L 439.61986 88.313733 
L 441.809048 87.789868 
L 442.903641 87.266002 
L 443.998235 87.34084 
L 445.092829 86.919026 
L 448.37661 86.150236 
L 451.660392 85.449481 
L 452.754986 85.544729 
L 453.84958 85.347429 
L 454.944173 85.286198 
L 456.038767 85.088898 
L 457.133361 85.007257 
L 458.227955 84.673888 
L 459.322549 84.605854 
L 460.417143 84.265681 
L 461.511736 84.394947 
L 462.60633 84.367733 
L 463.700924 84.122809 
L 464.795518 83.735012 
L 465.890112 83.687388 
L 466.984706 83.129505 
L 468.079299 83.034257 
L 471.363081 81.823243 
L 472.457675 81.598729 
L 474.646862 81.496677 
L 475.741456 81.013632 
L 477.930644 80.857153 
L 479.025238 80.442143 
L 480.119831 80.523784 
L 481.214425 80.163201 
L 483.403613 80.442143 
L 485.592801 79.741388 
L 486.687394 79.829832 
L 487.781988 79.537284 
L 488.876582 79.455643 
L 489.971176 79.210719 
L 491.06577 79.108667 
L 492.160363 78.87735 
L 493.254957 79.435232 
L 494.349551 79.360394 
L 495.444145 78.958991 
L 496.538739 78.843332 
L 497.633333 78.265039 
L 498.727926 78.101756 
L 499.82252 78.162987 
L 500.917114 77.999705 
L 502.011708 78.047329 
L 503.106302 77.618711 
L 505.295489 77.312556 
L 507.484677 76.890742 
L 508.579271 76.666229 
L 508.579271 76.666229 
" clip-path="url(#p85ead68678)" style="fill: none; stroke: #d62728; stroke-width: 1.8; stroke-linecap: square"/>
   </g>
   <g id="line2d_32">
    <path d="M 82.782273 375.568954 
L 84.97146 407.293437 
L 86.066054 380.821217 
L 87.160648 384.474669 
L 88.255242 367.955895 
L 90.44443 347.531941 
L 91.539023 345.837882 
L 92.633617 334.782278 
L 93.728211 333.510033 
L 94.822805 329.489195 
L 95.917399 327.128398 
L 97.011992 323.576997 
L 98.106586 316.344931 
L 99.20118 327.039953 
L 100.295774 306.180579 
L 101.390368 306.248613 
L 102.484962 302.697213 
L 103.579555 297.417736 
L 104.674149 288.532432 
L 105.768743 291.376274 
L 106.863337 287.158135 
L 107.957931 289.804677 
L 109.052525 279.946479 
L 110.147118 280.599611 
L 111.241712 273.156637 
L 112.336306 268.564309 
L 113.4309 266.428026 
L 114.525494 265.557185 
L 115.620087 260.230084 
L 116.714681 260.658702 
L 117.809275 256.107194 
L 118.903869 250.276639 
L 119.998463 250.827718 
L 121.093057 245.037983 
L 122.18765 246.201373 
L 123.282244 242.670383 
L 124.376838 237.799113 
L 125.471432 234.009592 
L 126.566026 232.70333 
L 127.66062 231.077306 
L 128.755213 228.308302 
L 129.849807 226.478174 
L 130.944401 222.960791 
L 132.038995 218.722242 
L 133.133589 217.075808 
L 134.228183 215.701511 
L 135.322776 213.245466 
L 136.41737 211.748707 
L 137.511964 210.911883 
L 139.701152 208.115666 
L 140.795745 204.911241 
L 141.890339 202.754548 
L 142.984933 201.91092 
L 144.079527 199.910706 
L 145.174121 199.414054 
L 146.268715 197.100882 
L 148.457902 194.665247 
L 149.552496 193.998509 
L 150.64709 191.841816 
L 151.741684 191.215898 
L 153.930871 188.637391 
L 155.025465 188.392467 
L 156.120059 186.62357 
L 157.214653 186.487501 
L 158.309247 186.215363 
L 160.498434 184.739015 
L 161.593028 184.330808 
L 162.687622 183.432753 
L 163.782216 183.07217 
L 164.87681 181.799925 
L 165.971403 181.058349 
L 167.065997 180.765801 
L 168.160591 179.962994 
L 170.349779 179.282649 
L 171.444373 177.942369 
L 172.538966 177.717856 
L 173.63356 176.826604 
L 176.917342 175.765266 
L 178.011936 175.112135 
L 179.106529 174.309328 
L 181.295717 173.111921 
L 182.390311 173.145938 
L 188.957874 170.397345 
L 190.052468 170.438165 
L 193.336249 168.982227 
L 194.430843 168.696482 
L 195.525437 168.233848 
L 197.714624 167.669162 
L 198.809218 167.403827 
L 199.903812 166.750696 
L 200.998406 166.356096 
L 202.093 166.124779 
L 203.187594 166.015924 
L 209.755156 163.940872 
L 210.84975 163.900051 
L 211.944344 163.519058 
L 213.038938 163.28774 
L 214.133532 162.65502 
L 216.322719 162.090333 
L 217.417313 161.913444 
L 218.511907 161.586878 
L 219.606501 160.974568 
L 221.795689 160.716037 
L 223.984876 159.729537 
L 225.07947 159.266902 
L 227.268658 158.709019 
L 228.363252 158.17835 
L 229.457845 157.96064 
L 230.552439 157.375543 
L 231.647033 157.062585 
L 233.836221 156.103298 
L 234.930814 155.300491 
L 236.025408 154.797036 
L 237.120002 154.524898 
L 238.214596 153.871767 
L 239.30919 153.409133 
L 240.403784 153.157405 
L 241.498377 152.728788 
L 242.592971 152.123281 
L 243.687565 151.994015 
L 245.876753 151.041532 
L 248.06594 150.374794 
L 249.160534 150.123067 
L 250.255128 150.014212 
L 251.349722 149.422312 
L 252.444316 149.014105 
L 253.53891 148.830411 
L 257.917285 147.115942 
L 259.011879 147.007087 
L 260.106472 146.394777 
L 261.201066 146.170263 
L 264.484848 144.455794 
L 265.579442 144.326528 
L 266.674035 143.85709 
L 267.768629 143.63938 
L 268.863223 143.122318 
L 269.957817 142.843376 
L 271.052411 142.82977 
L 274.336192 141.673183 
L 274.336192 141.673183 
" clip-path="url(#p85ead68678)" style="fill: none; stroke: #9467bd; stroke-width: 1.8; stroke-linecap: square"/>
   </g>
   <g id="line2d_33">
    <path d="M 82.782273 388.617969 
L 83.876867 400.190636 
L 84.97146 407.551968 
L 86.066054 384.71279 
L 87.160648 393.849822 
L 88.255242 365.295746 
L 89.349836 370.255461 
L 90.44443 342.402141 
L 91.539023 349.525352 
L 92.633617 335.864026 
L 93.728211 331.911222 
L 94.822805 334.550961 
L 95.917399 322.883046 
L 97.011992 321.794494 
L 98.106586 317.930135 
L 99.20118 325.747298 
L 100.295774 310.752496 
L 101.390368 312.868369 
L 102.484962 308.45293 
L 103.579555 302.35704 
L 104.674149 301.873995 
L 105.768743 297.655857 
L 106.863337 295.25424 
L 107.957931 286.85198 
L 109.052525 286.858784 
L 110.147118 282.232438 
L 111.241712 275.46981 
L 112.336306 272.809661 
L 113.4309 267.346492 
L 115.620087 262.094229 
L 116.714681 262.611292 
L 117.809275 254.215836 
L 118.903869 253.603525 
L 119.998463 250.18139 
L 121.093057 248.902342 
L 123.282244 244.201159 
L 125.471432 237.363693 
L 127.66062 234.839613 
L 128.755213 231.573957 
L 129.849807 228.682492 
L 130.944401 224.709277 
L 132.038995 223.960898 
L 133.133589 221.042219 
L 134.228183 216.810473 
L 136.41737 214.43607 
L 137.511964 213.939418 
L 138.606558 211.877973 
L 139.701152 211.068362 
L 140.795745 208.047631 
L 141.890339 205.918152 
L 142.984933 204.217289 
L 144.079527 201.162541 
L 145.174121 199.638568 
L 146.268715 198.713299 
L 147.363308 197.454661 
L 148.457902 195.583713 
L 150.64709 193.787602 
L 151.741684 193.610712 
L 152.836278 191.903047 
L 153.930871 191.753371 
L 156.120059 189.270112 
L 157.214653 188.957153 
L 158.309247 188.025081 
L 159.403841 187.582857 
L 160.498434 186.147329 
L 163.782216 184.03826 
L 164.87681 183.147008 
L 165.971403 182.718391 
L 167.065997 182.092473 
L 168.160591 181.738694 
L 169.255185 180.861049 
L 170.349779 180.452842 
L 171.444373 179.901763 
L 172.538966 179.568394 
L 173.63356 178.629518 
L 174.728154 178.405004 
L 175.822748 177.534163 
L 176.917342 177.166776 
L 180.201123 175.710838 
L 181.295717 175.731249 
L 182.390311 175.465914 
L 183.484905 175.057707 
L 184.579499 174.404576 
L 185.674092 174.214079 
L 186.768686 173.635786 
L 187.86328 173.404469 
L 188.957874 172.880603 
L 190.052468 172.526824 
L 191.147061 172.030172 
L 192.241655 171.805659 
L 194.430843 170.635465 
L 195.525437 170.356524 
L 196.620031 169.669376 
L 197.714624 169.846265 
L 202.093 168.3359 
L 203.187594 167.873265 
L 204.282187 167.17251 
L 205.376781 166.968406 
L 207.565969 166.049941 
L 208.660563 165.709768 
L 209.755156 165.179099 
L 210.84975 164.872944 
L 211.944344 164.791303 
L 213.038938 164.355882 
L 215.228126 163.702751 
L 217.417313 162.702644 
L 219.606501 162.110744 
L 227.268658 159.967657 
L 228.363252 159.389364 
L 229.457845 159.355347 
L 230.552439 158.858695 
L 231.647033 158.613771 
L 232.741627 157.872195 
L 233.836221 157.361936 
L 234.930814 156.715609 
L 237.120002 156.089692 
L 238.214596 155.525005 
L 240.403784 154.919498 
L 241.498377 154.40924 
L 242.592971 154.109888 
L 243.687565 153.572415 
L 246.971347 152.613129 
L 248.06594 152.388615 
L 249.160534 151.769501 
L 251.349722 151.123174 
L 252.444316 150.347581 
L 253.53891 150.340777 
L 254.633503 149.973391 
L 255.728097 149.354277 
L 257.917285 148.35417 
L 260.106472 147.34726 
L 261.201066 147.231601 
L 262.29566 146.510435 
L 263.390254 146.109032 
L 264.484848 146.027391 
L 267.768629 144.585059 
L 268.863223 144.483008 
L 269.957817 143.65979 
L 271.052411 143.612166 
L 274.336192 142.734521 
L 277.619974 141.1153 
L 278.714568 140.639059 
L 278.714568 140.639059 
" clip-path="url(#p85ead68678)" style="fill: none; stroke: #8c564b; stroke-width: 1.8; stroke-linecap: square"/>
   </g>
   <g id="line2d_34">
    <path d="M 82.782273 381.964196 
L 83.876867 399.966122 
L 84.97146 405.830695 
L 86.066054 395.30576 
L 87.160648 381.562793 
L 88.255242 359.546832 
L 89.349836 357.873184 
L 90.44443 358.410656 
L 91.539023 350.103645 
L 92.633617 332.244591 
L 93.728211 326.46166 
L 94.822805 326.733798 
L 95.917399 316.562642 
L 97.011992 320.903242 
L 98.106586 317.242986 
L 99.20118 311.704979 
L 100.295774 307.167079 
L 101.390368 301.343326 
L 102.484962 302.146133 
L 103.579555 294.165688 
L 104.674149 296.165902 
L 105.768743 289.539342 
L 106.863337 288.083404 
L 107.957931 285.362025 
L 109.052525 288.573253 
L 110.147118 279.715162 
L 111.241712 272.034068 
L 112.336306 266.359992 
L 113.4309 266.087854 
L 114.525494 263.86993 
L 115.620087 260.257298 
L 116.714681 256.202443 
L 117.809275 253.657953 
L 118.903869 252.406118 
L 119.998463 251.34478 
L 121.093057 245.072 
L 122.18765 243.425566 
L 123.282244 242.153321 
L 124.376838 235.941772 
L 125.471432 239.084965 
L 126.566026 237.581403 
L 127.66062 231.009271 
L 128.755213 231.077306 
L 129.849807 226.423747 
L 130.944401 224.08336 
L 132.038995 222.845132 
L 133.133589 219.443408 
L 134.228183 218.014684 
L 135.322776 215.994059 
L 136.41737 213.415552 
L 137.511964 212.497087 
" clip-path="url(#p85ead68678)" style="fill: none; stroke: #e377c2; stroke-width: 1.8; stroke-linecap: square"/>
   </g>
   <g id="line2d_35">
    <path d="M 82.782273 383.889572 
L 83.876867 387.202852 
L 84.97146 398.251653 
" clip-path="url(#p85ead68678)" style="fill: none; stroke: #7f7f7f; stroke-width: 1.8; stroke-linecap: square"/>
   </g>
   <g id="line2d_36">
    <path d="M 82.782273 379.766682 
L 83.876867 387.89 
L 84.97146 399.571522 
" clip-path="url(#p85ead68678)" style="fill: none; stroke: #bcbd22; stroke-width: 1.8; stroke-linecap: square"/>
   </g>
   <g id="patch_3">
    <path d="M 47.81 426.04 
L 47.81 25.44 
" style="fill: none; stroke: #000000; stroke-width: 0.8; stroke-linejoin: miter; stroke-linecap: square"/>
   </g>
   <g id="patch_4">
    <path d="M 817.2 426.04 
L 817.2 25.44 
" style="fill: none; stroke: #000000; stroke-width: 0.8; stroke-linejoin: miter; stroke-linecap: square"/>
   </g>
   <g id="patch_5">
    <path d="M 47.81 426.04 
L 817.2 426.04 
" style="fill: none; stroke: #000000; stroke-width: 0.8; stroke-linejoin: miter; stroke-linecap: square"/>
   </g>
   <g id="patch_6">
    <path d="M 47.81 25.44 
L 817.2 25.44 
" style="fill: none; stroke: #000000; stroke-width: 0.8; stroke-linejoin: miter; stroke-linecap: square"/>
   </g>
   <g id="text_16">
    <!-- 3090 current YOLO-init runs vs detonly_control (fresh pull) -->
    <g transform="translate(257.61625 19.44) scale(0.12 -0.12)">
     <defs>
      <path id="DejaVuSans-20" transform="scale(0.015625)"/>
      <path id="DejaVuSans-75" d="M 544 1381 
L 544 3500 
L 1119 3500 
L 1119 1403 
Q 1119 906 1312 657 
Q 1506 409 1894 409 
Q 2359 409 2629 706 
Q 2900 1003 2900 1516 
L 2900 3500 
L 3475 3500 
L 3475 0 
L 2900 0 
L 2900 538 
Q 2691 219 2414 64 
Q 2138 -91 1772 -91 
Q 1169 -91 856 284 
Q 544 659 544 1381 
z
M 1991 3584 
L 1991 3584 
z
" transform="scale(0.015625)"/>
      <path id="DejaVuSans-72" d="M 2631 2963 
Q 2534 3019 2420 3045 
Q 2306 3072 2169 3072 
Q 1681 3072 1420 2755 
Q 1159 2438 1159 1844 
L 1159 0 
L 581 0 
L 581 3500 
L 1159 3500 
L 1159 2956 
Q 1341 3275 1631 3429 
Q 1922 3584 2338 3584 
Q 2397 3584 2469 3576 
Q 2541 3569 2628 3553 
L 2631 2963 
z
" transform="scale(0.015625)"/>
      <path id="DejaVuSans-6e" d="M 3513 2113 
L 3513 0 
L 2938 0 
L 2938 2094 
Q 2938 2591 2744 2837 
Q 2550 3084 2163 3084 
Q 1697 3084 1428 2787 
Q 1159 2491 1159 1978 
L 1159 0 
L 581 0 
L 581 3500 
L 1159 3500 
L 1159 2956 
Q 1366 3272 1645 3428 
Q 1925 3584 2291 3584 
Q 2894 3584 3203 3211 
Q 3513 2838 3513 2113 
z
" transform="scale(0.015625)"/>
      <path id="DejaVuSans-74" d="M 1172 4494 
L 1172 3500 
L 2356 3500 
L 2356 3053 
L 1172 3053 
L 1172 1153 
Q 1172 725 1289 603 
Q 1406 481 1766 481 
L 2356 481 
L 2356 0 
L 1766 0 
Q 1100 0 847 248 
Q 594 497 594 1153 
L 594 3053 
L 172 3053 
L 172 3500 
L 594 3500 
L 594 4494 
L 1172 4494 
z
" transform="scale(0.015625)"/>
      <path id="DejaVuSans-59" d="M -13 4666 
L 666 4666 
L 1959 2747 
L 3244 4666 
L 3922 4666 
L 2272 2222 
L 2272 0 
L 1638 0 
L 1638 2222 
L -13 4666 
z
" transform="scale(0.015625)"/>
      <path id="DejaVuSans-4f" d="M 2522 4238 
Q 1834 4238 1429 3725 
Q 1025 3213 1025 2328 
Q 1025 1447 1429 934 
Q 1834 422 2522 422 
Q 3209 422 3611 934 
Q 4013 1447 4013 2328 
Q 4013 3213 3611 3725 
Q 3209 4238 2522 4238 
z
M 2522 4750 
Q 3503 4750 4090 4092 
Q 4678 3434 4678 2328 
Q 4678 1225 4090 567 
Q 3503 -91 2522 -91 
Q 1538 -91 948 565 
Q 359 1222 359 2328 
Q 359 3434 948 4092 
Q 1538 4750 2522 4750 
z
" transform="scale(0.015625)"/>
      <path id="DejaVuSans-4c" d="M 628 4666 
L 1259 4666 
L 1259 531 
L 3531 531 
L 3531 0 
L 628 0 
L 628 4666 
z
" transform="scale(0.015625)"/>
      <path id="DejaVuSans-2d" d="M 313 2009 
L 1997 2009 
L 1997 1497 
L 313 1497 
L 313 2009 
z
" transform="scale(0.015625)"/>
      <path id="DejaVuSans-69" d="M 603 3500 
L 1178 3500 
L 1178 0 
L 603 0 
L 603 3500 
z
M 603 4863 
L 1178 4863 
L 1178 4134 
L 603 4134 
L 603 4863 
z
" transform="scale(0.015625)"/>
      <path id="DejaVuSans-73" d="M 2834 3397 
L 2834 2853 
Q 2591 2978 2328 3040 
Q 2066 3103 1784 3103 
Q 1356 3103 1142 2972 
Q 928 2841 928 2578 
Q 928 2378 1081 2264 
Q 1234 2150 1697 2047 
L 1894 2003 
Q 2506 1872 2764 1633 
Q 3022 1394 3022 966 
Q 3022 478 2636 193 
Q 2250 -91 1575 -91 
Q 1294 -91 989 -36 
Q 684 19 347 128 
L 347 722 
Q 666 556 975 473 
Q 1284 391 1588 391 
Q 1994 391 2212 530 
Q 2431 669 2431 922 
Q 2431 1156 2273 1281 
Q 2116 1406 1581 1522 
L 1381 1569 
Q 847 1681 609 1914 
Q 372 2147 372 2553 
Q 372 3047 722 3315 
Q 1072 3584 1716 3584 
Q 2034 3584 2315 3537 
Q 2597 3491 2834 3397 
z
" transform="scale(0.015625)"/>
      <path id="DejaVuSans-76" d="M 191 3500 
L 800 3500 
L 1894 563 
L 2988 3500 
L 3597 3500 
L 2284 0 
L 1503 0 
L 191 3500 
z
" transform="scale(0.015625)"/>
      <path id="DejaVuSans-64" d="M 2906 2969 
L 2906 4863 
L 3481 4863 
L 3481 0 
L 2906 0 
L 2906 525 
Q 2725 213 2448 61 
Q 2172 -91 1784 -91 
Q 1150 -91 751 415 
Q 353 922 353 1747 
Q 353 2572 751 3078 
Q 1150 3584 1784 3584 
Q 2172 3584 2448 3432 
Q 2725 3281 2906 2969 
z
M 947 1747 
Q 947 1113 1208 752 
Q 1469 391 1925 391 
Q 2381 391 2643 752 
Q 2906 1113 2906 1747 
Q 2906 2381 2643 2742 
Q 2381 3103 1925 3103 
Q 1469 3103 1208 2742 
Q 947 2381 947 1747 
z
" transform="scale(0.015625)"/>
      <path id="DejaVuSans-6c" d="M 603 4863 
L 1178 4863 
L 1178 0 
L 603 0 
L 603 4863 
z
" transform="scale(0.015625)"/>
      <path id="DejaVuSans-79" d="M 2059 -325 
Q 1816 -950 1584 -1140 
Q 1353 -1331 966 -1331 
L 506 -1331 
L 506 -850 
L 844 -850 
Q 1081 -850 1212 -737 
Q 1344 -625 1503 -206 
L 1606 56 
L 191 3500 
L 800 3500 
L 1894 763 
L 2988 3500 
L 3597 3500 
L 2059 -325 
z
" transform="scale(0.015625)"/>
      <path id="DejaVuSans-5f" d="M 3263 -1063 
L 3263 -1509 
L -63 -1509 
L -63 -1063 
L 3263 -1063 
z
" transform="scale(0.015625)"/>
      <path id="DejaVuSans-28" d="M 1984 4856 
Q 1566 4138 1362 3434 
Q 1159 2731 1159 2009 
Q 1159 1288 1364 580 
Q 1569 -128 1984 -844 
L 1484 -844 
Q 1016 -109 783 600 
Q 550 1309 550 2009 
Q 550 2706 781 3412 
Q 1013 4119 1484 4856 
L 1984 4856 
z
" transform="scale(0.015625)"/>
      <path id="DejaVuSans-66" d="M 2375 4863 
L 2375 4384 
L 1825 4384 
Q 1516 4384 1395 4259 
Q 1275 4134 1275 3809 
L 1275 3500 
L 2222 3500 
L 2222 3053 
L 1275 3053 
L 1275 0 
L 697 0 
L 697 3053 
L 147 3053 
L 147 3500 
L 697 3500 
L 697 3744 
Q 697 4328 969 4595 
Q 1241 4863 1831 4863 
L 2375 4863 
z
" transform="scale(0.015625)"/>
      <path id="DejaVuSans-29" d="M 513 4856 
L 1013 4856 
Q 1481 4119 1714 3412 
Q 1947 2706 1947 2009 
Q 1947 1309 1714 600 
Q 1481 -109 1013 -844 
L 513 -844 
Q 928 -128 1133 580 
Q 1338 1288 1338 2009 
Q 1338 2731 1133 3434 
Q 928 4138 513 4856 
z
" transform="scale(0.015625)"/>
     </defs>
     <use xlink:href="#DejaVuSans-33"/>
     <use xlink:href="#DejaVuSans-30" x="63.623047"/>
     <use xlink:href="#DejaVuSans-39" x="127.246094"/>
     <use xlink:href="#DejaVuSans-30" x="190.869141"/>
     <use xlink:href="#DejaVuSans-20" x="254.492188"/>
     <use xlink:href="#DejaVuSans-63" x="286.279297"/>
     <use xlink:href="#DejaVuSans-75" x="341.259766"/>
     <use xlink:href="#DejaVuSans-72" x="404.638672"/>
     <use xlink:href="#DejaVuSans-72" x="444.001953"/>
     <use xlink:href="#DejaVuSans-65" x="482.865234"/>
     <use xlink:href="#DejaVuSans-6e" x="544.388672"/>
     <use xlink:href="#DejaVuSans-74" x="607.767578"/>
     <use xlink:href="#DejaVuSans-20" x="646.976562"/>
     <use xlink:href="#DejaVuSans-59" x="678.763672"/>
     <use xlink:href="#DejaVuSans-4f" x="734.347656"/>
     <use xlink:href="#DejaVuSans-4c" x="813.058594"/>
     <use xlink:href="#DejaVuSans-4f" x="865.146484"/>
     <use xlink:href="#DejaVuSans-2d" x="946.607422"/>
     <use xlink:href="#DejaVuSans-69" x="982.691406"/>
     <use xlink:href="#DejaVuSans-6e" x="1010.474609"/>
     <use xlink:href="#DejaVuSans-69" x="1073.853516"/>
     <use xlink:href="#DejaVuSans-74" x="1101.636719"/>
     <use xlink:href="#DejaVuSans-20" x="1140.845703"/>
     <use xlink:href="#DejaVuSans-72" x="1172.632812"/>
     <use xlink:href="#DejaVuSans-75" x="1213.746094"/>
     <use xlink:href="#DejaVuSans-6e" x="1277.125"/>
     <use xlink:href="#DejaVuSans-73" x="1340.503906"/>
     <use xlink:href="#DejaVuSans-20" x="1392.603516"/>
     <use xlink:href="#DejaVuSans-76" x="1424.390625"/>
     <use xlink:href="#DejaVuSans-73" x="1483.570312"/>
     <use xlink:href="#DejaVuSans-20" x="1535.669922"/>
     <use xlink:href="#DejaVuSans-64" x="1567.457031"/>
     <use xlink:href="#DejaVuSans-65" x="1630.933594"/>
     <use xlink:href="#DejaVuSans-74" x="1692.457031"/>
     <use xlink:href="#DejaVuSans-6f" x="1731.666016"/>
     <use xlink:href="#DejaVuSans-6e" x="1792.847656"/>
     <use xlink:href="#DejaVuSans-6c" x="1856.226562"/>
     <use xlink:href="#DejaVuSans-79" x="1884.009766"/>
     <use xlink:href="#DejaVuSans-5f" x="1943.189453"/>
     <use xlink:href="#DejaVuSans-63" x="1993.189453"/>
     <use xlink:href="#DejaVuSans-6f" x="2048.169922"/>
     <use xlink:href="#DejaVuSans-6e" x="2109.351562"/>
     <use xlink:href="#DejaVuSans-74" x="2172.730469"/>
     <use xlink:href="#DejaVuSans-72" x="2211.939453"/>
     <use xlink:href="#DejaVuSans-6f" x="2250.802734"/>
     <use xlink:href="#DejaVuSans-6c" x="2311.984375"/>
     <use xlink:href="#DejaVuSans-20" x="2339.767578"/>
     <use xlink:href="#DejaVuSans-28" x="2371.554688"/>
     <use xlink:href="#DejaVuSans-66" x="2410.568359"/>
     <use xlink:href="#DejaVuSans-72" x="2445.773438"/>
     <use xlink:href="#DejaVuSans-65" x="2484.636719"/>
     <use xlink:href="#DejaVuSans-73" x="2546.160156"/>
     <use xlink:href="#DejaVuSans-68" x="2598.259766"/>
     <use xlink:href="#DejaVuSans-20" x="2661.638672"/>
     <use xlink:href="#DejaVuSans-70" x="2693.425781"/>
     <use xlink:href="#DejaVuSans-75" x="2756.902344"/>
     <use xlink:href="#DejaVuSans-6c" x="2820.28125"/>
     <use xlink:href="#DejaVuSans-6c" x="2848.064453"/>
     <use xlink:href="#DejaVuSans-29" x="2875.847656"/>
    </g>
   </g>
   <g id="legend_1">
    <g id="patch_7">
     <path d="M 53.41 151.49 
L 188.2875 151.49 
Q 189.8875 151.49 189.8875 149.89 
L 189.8875 31.04 
Q 189.8875 29.44 188.2875 29.44 
L 53.41 29.44 
Q 51.81 29.44 51.81 31.04 
L 51.81 149.89 
Q 51.81 151.49 53.41 151.49 
z
" style="fill: #ffffff; opacity: 0.8; stroke: #cccccc; stroke-linejoin: miter"/>
    </g>
    <g id="line2d_37">
     <path d="M 55.01 35.91875 
L 63.01 35.91875 
L 71.01 35.91875 
" style="fill: none; stroke: #000000; stroke-width: 2.6; stroke-linecap: square"/>
    </g>
    <g id="text_17">
     <!-- detonly_control -->
     <g transform="translate(77.41 38.71875) scale(0.08 -0.08)">
      <use xlink:href="#DejaVuSans-64"/>
      <use xlink:href="#DejaVuSans-65" x="63.476562"/>
      <use xlink:href="#DejaVuSans-74" x="125"/>
      <use xlink:href="#DejaVuSans-6f" x="164.208984"/>
      <use xlink:href="#DejaVuSans-6e" x="225.390625"/>
      <use xlink:href="#DejaVuSans-6c" x="288.769531"/>
      <use xlink:href="#DejaVuSans-79" x="316.552734"/>
      <use xlink:href="#DejaVuSans-5f" x="375.732422"/>
      <use xlink:href="#DejaVuSans-63" x="425.732422"/>
      <use xlink:href="#DejaVuSans-6f" x="480.712891"/>
      <use xlink:href="#DejaVuSans-6e" x="541.894531"/>
      <use xlink:href="#DejaVuSans-74" x="605.273438"/>
      <use xlink:href="#DejaVuSans-72" x="644.482422"/>
      <use xlink:href="#DejaVuSans-6f" x="683.345703"/>
      <use xlink:href="#DejaVuSans-6c" x="744.527344"/>
     </g>
    </g>
    <g id="line2d_38">
     <path d="M 55.01 47.88375 
L 63.01 47.88375 
L 71.01 47.88375 
" style="fill: none; stroke: #1f77b4; stroke-width: 1.8; stroke-linecap: square"/>
    </g>
    <g id="text_18">
     <!-- dynamic_plain -->
     <g transform="translate(77.41 50.68375) scale(0.08 -0.08)">
      <use xlink:href="#DejaVuSans-64"/>
      <use xlink:href="#DejaVuSans-79" x="63.476562"/>
      <use xlink:href="#DejaVuSans-6e" x="122.65625"/>
      <use xlink:href="#DejaVuSans-61" x="186.035156"/>
      <use xlink:href="#DejaVuSans-6d" x="247.314453"/>
      <use xlink:href="#DejaVuSans-69" x="344.726562"/>
      <use xlink:href="#DejaVuSans-63" x="372.509766"/>
      <use xlink:href="#DejaVuSans-5f" x="427.490234"/>
      <use xlink:href="#DejaVuSans-70" x="477.490234"/>
      <use xlink:href="#DejaVuSans-6c" x="540.966797"/>
      <use xlink:href="#DejaVuSans-61" x="568.75"/>
      <use xlink:href="#DejaVuSans-69" x="630.029297"/>
      <use xlink:href="#DejaVuSans-6e" x="657.8125"/>
     </g>
    </g>
    <g id="line2d_39">
     <path d="M 55.01 59.84875 
L 63.01 59.84875 
L 71.01 59.84875 
" style="fill: none; stroke: #ff7f0e; stroke-width: 1.8; stroke-linecap: square"/>
    </g>
    <g id="text_19">
     <!-- dynamic_wo_s_rec -->
     <g transform="translate(77.41 62.64875) scale(0.08 -0.08)">
      <defs>
       <path id="DejaVuSans-77" d="M 269 3500 
L 844 3500 
L 1563 769 
L 2278 3500 
L 2956 3500 
L 3675 769 
L 4391 3500 
L 4966 3500 
L 4050 0 
L 3372 0 
L 2619 2869 
L 1863 0 
L 1184 0 
L 269 3500 
z
" transform="scale(0.015625)"/>
      </defs>
      <use xlink:href="#DejaVuSans-64"/>
      <use xlink:href="#DejaVuSans-79" x="63.476562"/>
      <use xlink:href="#DejaVuSans-6e" x="122.65625"/>
      <use xlink:href="#DejaVuSans-61" x="186.035156"/>
      <use xlink:href="#DejaVuSans-6d" x="247.314453"/>
      <use xlink:href="#DejaVuSans-69" x="344.726562"/>
      <use xlink:href="#DejaVuSans-63" x="372.509766"/>
      <use xlink:href="#DejaVuSans-5f" x="427.490234"/>
      <use xlink:href="#DejaVuSans-77" x="477.490234"/>
      <use xlink:href="#DejaVuSans-6f" x="559.277344"/>
      <use xlink:href="#DejaVuSans-5f" x="620.458984"/>
      <use xlink:href="#DejaVuSans-73" x="670.458984"/>
      <use xlink:href="#DejaVuSans-5f" x="722.558594"/>
      <use xlink:href="#DejaVuSans-72" x="772.558594"/>
      <use xlink:href="#DejaVuSans-65" x="811.421875"/>
      <use xlink:href="#DejaVuSans-63" x="872.945312"/>
     </g>
    </g>
    <g id="line2d_40">
     <path d="M 55.01 71.81375 
L 63.01 71.81375 
L 71.01 71.81375 
" style="fill: none; stroke: #2ca02c; stroke-width: 1.8; stroke-linecap: square"/>
    </g>
    <g id="text_20">
     <!-- dynamic_singleproj -->
     <g transform="translate(77.41 74.61375) scale(0.08 -0.08)">
      <defs>
       <path id="DejaVuSans-67" d="M 2906 1791 
Q 2906 2416 2648 2759 
Q 2391 3103 1925 3103 
Q 1463 3103 1205 2759 
Q 947 2416 947 1791 
Q 947 1169 1205 825 
Q 1463 481 1925 481 
Q 2391 481 2648 825 
Q 2906 1169 2906 1791 
z
M 3481 434 
Q 3481 -459 3084 -895 
Q 2688 -1331 1869 -1331 
Q 1566 -1331 1297 -1286 
Q 1028 -1241 775 -1147 
L 775 -588 
Q 1028 -725 1275 -790 
Q 1522 -856 1778 -856 
Q 2344 -856 2625 -561 
Q 2906 -266 2906 331 
L 2906 616 
Q 2728 306 2450 153 
Q 2172 0 1784 0 
Q 1141 0 747 490 
Q 353 981 353 1791 
Q 353 2603 747 3093 
Q 1141 3584 1784 3584 
Q 2172 3584 2450 3431 
Q 2728 3278 2906 2969 
L 2906 3500 
L 3481 3500 
L 3481 434 
z
" transform="scale(0.015625)"/>
       <path id="DejaVuSans-6a" d="M 603 3500 
L 1178 3500 
L 1178 -63 
Q 1178 -731 923 -1031 
Q 669 -1331 103 -1331 
L -116 -1331 
L -116 -844 
L 38 -844 
Q 366 -844 484 -692 
Q 603 -541 603 -63 
L 603 3500 
z
M 603 4863 
L 1178 4863 
L 1178 4134 
L 603 4134 
L 603 4863 
z
" transform="scale(0.015625)"/>
      </defs>
      <use xlink:href="#DejaVuSans-64"/>
      <use xlink:href="#DejaVuSans-79" x="63.476562"/>
      <use xlink:href="#DejaVuSans-6e" x="122.65625"/>
      <use xlink:href="#DejaVuSans-61" x="186.035156"/>
      <use xlink:href="#DejaVuSans-6d" x="247.314453"/>
      <use xlink:href="#DejaVuSans-69" x="344.726562"/>
      <use xlink:href="#DejaVuSans-63" x="372.509766"/>
      <use xlink:href="#DejaVuSans-5f" x="427.490234"/>
      <use xlink:href="#DejaVuSans-73" x="477.490234"/>
      <use xlink:href="#DejaVuSans-69" x="529.589844"/>
      <use xlink:href="#DejaVuSans-6e" x="557.373047"/>
      <use xlink:href="#DejaVuSans-67" x="620.751953"/>
      <use xlink:href="#DejaVuSans-6c" x="684.228516"/>
      <use xlink:href="#DejaVuSans-65" x="712.011719"/>
      <use xlink:href="#DejaVuSans-70" x="773.535156"/>
      <use xlink:href="#DejaVuSans-72" x="837.011719"/>
      <use xlink:href="#DejaVuSans-6f" x="875.875"/>
      <use xlink:href="#DejaVuSans-6a" x="937.056641"/>
     </g>
    </g>
    <g id="line2d_41">
     <path d="M 55.01 83.77875 
L 63.01 83.77875 
L 71.01 83.77875 
" style="fill: none; stroke: #d62728; stroke-width: 1.8; stroke-linecap: square"/>
    </g>
    <g id="text_21">
     <!-- dynamic_rawinput -->
     <g transform="translate(77.41 86.57875) scale(0.08 -0.08)">
      <use xlink:href="#DejaVuSans-64"/>
      <use xlink:href="#DejaVuSans-79" x="63.476562"/>
      <use xlink:href="#DejaVuSans-6e" x="122.65625"/>
      <use xlink:href="#DejaVuSans-61" x="186.035156"/>
      <use xlink:href="#DejaVuSans-6d" x="247.314453"/>
      <use xlink:href="#DejaVuSans-69" x="344.726562"/>
      <use xlink:href="#DejaVuSans-63" x="372.509766"/>
      <use xlink:href="#DejaVuSans-5f" x="427.490234"/>
      <use xlink:href="#DejaVuSans-72" x="477.490234"/>
      <use xlink:href="#DejaVuSans-61" x="518.603516"/>
      <use xlink:href="#DejaVuSans-77" x="579.882812"/>
      <use xlink:href="#DejaVuSans-69" x="661.669922"/>
      <use xlink:href="#DejaVuSans-6e" x="689.453125"/>
      <use xlink:href="#DejaVuSans-70" x="752.832031"/>
      <use xlink:href="#DejaVuSans-75" x="816.308594"/>
      <use xlink:href="#DejaVuSans-74" x="879.6875"/>
     </g>
    </g>
    <g id="line2d_42">
     <path d="M 55.01 95.74375 
L 63.01 95.74375 
L 71.01 95.74375 
" style="fill: none; stroke: #9467bd; stroke-width: 1.8; stroke-linecap: square"/>
    </g>
    <g id="text_22">
     <!-- dynamic_capR2 -->
     <g transform="translate(77.41 98.54375) scale(0.08 -0.08)">
      <defs>
       <path id="DejaVuSans-52" d="M 2841 2188 
Q 3044 2119 3236 1894 
Q 3428 1669 3622 1275 
L 4263 0 
L 3584 0 
L 2988 1197 
Q 2756 1666 2539 1819 
Q 2322 1972 1947 1972 
L 1259 1972 
L 1259 0 
L 628 0 
L 628 4666 
L 2053 4666 
Q 2853 4666 3247 4331 
Q 3641 3997 3641 3322 
Q 3641 2881 3436 2590 
Q 3231 2300 2841 2188 
z
M 1259 4147 
L 1259 2491 
L 2053 2491 
Q 2509 2491 2742 2702 
Q 2975 2913 2975 3322 
Q 2975 3731 2742 3939 
Q 2509 4147 2053 4147 
L 1259 4147 
z
" transform="scale(0.015625)"/>
      </defs>
      <use xlink:href="#DejaVuSans-64"/>
      <use xlink:href="#DejaVuSans-79" x="63.476562"/>
      <use xlink:href="#DejaVuSans-6e" x="122.65625"/>
      <use xlink:href="#DejaVuSans-61" x="186.035156"/>
      <use xlink:href="#DejaVuSans-6d" x="247.314453"/>
      <use xlink:href="#DejaVuSans-69" x="344.726562"/>
      <use xlink:href="#DejaVuSans-63" x="372.509766"/>
      <use xlink:href="#DejaVuSans-5f" x="427.490234"/>
      <use xlink:href="#DejaVuSans-63" x="477.490234"/>
      <use xlink:href="#DejaVuSans-61" x="532.470703"/>
      <use xlink:href="#DejaVuSans-70" x="593.75"/>
      <use xlink:href="#DejaVuSans-52" x="657.226562"/>
      <use xlink:href="#DejaVuSans-32" x="726.708984"/>
     </g>
    </g>
    <g id="line2d_43">
     <path d="M 55.01 107.70875 
L 63.01 107.70875 
L 71.01 107.70875 
" style="fill: none; stroke: #8c564b; stroke-width: 1.8; stroke-linecap: square"/>
    </g>
    <g id="text_23">
     <!-- dynamic_capR4 -->
     <g transform="translate(77.41 110.50875) scale(0.08 -0.08)">
      <use xlink:href="#DejaVuSans-64"/>
      <use xlink:href="#DejaVuSans-79" x="63.476562"/>
      <use xlink:href="#DejaVuSans-6e" x="122.65625"/>
      <use xlink:href="#DejaVuSans-61" x="186.035156"/>
      <use xlink:href="#DejaVuSans-6d" x="247.314453"/>
      <use xlink:href="#DejaVuSans-69" x="344.726562"/>
      <use xlink:href="#DejaVuSans-63" x="372.509766"/>
      <use xlink:href="#DejaVuSans-5f" x="427.490234"/>
      <use xlink:href="#DejaVuSans-63" x="477.490234"/>
      <use xlink:href="#DejaVuSans-61" x="532.470703"/>
      <use xlink:href="#DejaVuSans-70" x="593.75"/>
      <use xlink:href="#DejaVuSans-52" x="657.226562"/>
      <use xlink:href="#DejaVuSans-34" x="726.708984"/>
     </g>
    </g>
    <g id="line2d_44">
     <path d="M 55.01 119.67375 
L 63.01 119.67375 
L 71.01 119.67375 
" style="fill: none; stroke: #e377c2; stroke-width: 1.8; stroke-linecap: square"/>
    </g>
    <g id="text_24">
     <!-- plain_detach_reach_probe -->
     <g transform="translate(77.41 122.47375) scale(0.08 -0.08)">
      <defs>
       <path id="DejaVuSans-62" d="M 3116 1747 
Q 3116 2381 2855 2742 
Q 2594 3103 2138 3103 
Q 1681 3103 1420 2742 
Q 1159 2381 1159 1747 
Q 1159 1113 1420 752 
Q 1681 391 2138 391 
Q 2594 391 2855 752 
Q 3116 1113 3116 1747 
z
M 1159 2969 
Q 1341 3281 1617 3432 
Q 1894 3584 2278 3584 
Q 2916 3584 3314 3078 
Q 3713 2572 3713 1747 
Q 3713 922 3314 415 
Q 2916 -91 2278 -91 
Q 1894 -91 1617 61 
Q 1341 213 1159 525 
L 1159 0 
L 581 0 
L 581 4863 
L 1159 4863 
L 1159 2969 
z
" transform="scale(0.015625)"/>
      </defs>
      <use xlink:href="#DejaVuSans-70"/>
      <use xlink:href="#DejaVuSans-6c" x="63.476562"/>
      <use xlink:href="#DejaVuSans-61" x="91.259766"/>
      <use xlink:href="#DejaVuSans-69" x="152.539062"/>
      <use xlink:href="#DejaVuSans-6e" x="180.322266"/>
      <use xlink:href="#DejaVuSans-5f" x="243.701172"/>
      <use xlink:href="#DejaVuSans-64" x="293.701172"/>
      <use xlink:href="#DejaVuSans-65" x="357.177734"/>
      <use xlink:href="#DejaVuSans-74" x="418.701172"/>
      <use xlink:href="#DejaVuSans-61" x="457.910156"/>
      <use xlink:href="#DejaVuSans-63" x="519.189453"/>
      <use xlink:href="#DejaVuSans-68" x="574.169922"/>
      <use xlink:href="#DejaVuSans-5f" x="637.548828"/>
      <use xlink:href="#DejaVuSans-72" x="687.548828"/>
      <use xlink:href="#DejaVuSans-65" x="726.412109"/>
      <use xlink:href="#DejaVuSans-61" x="787.935547"/>
      <use xlink:href="#DejaVuSans-63" x="849.214844"/>
      <use xlink:href="#DejaVuSans-68" x="904.195312"/>
      <use xlink:href="#DejaVuSans-5f" x="967.574219"/>
      <use xlink:href="#DejaVuSans-70" x="1017.574219"/>
      <use xlink:href="#DejaVuSans-72" x="1081.050781"/>
      <use xlink:href="#DejaVuSans-6f" x="1119.914062"/>
      <use xlink:href="#DejaVuSans-62" x="1181.095703"/>
      <use xlink:href="#DejaVuSans-65" x="1244.572266"/>
     </g>
    </g>
    <g id="line2d_45">
     <path d="M 55.01 131.63875 
L 63.01 131.63875 
L 71.01 131.63875 
" style="fill: none; stroke: #7f7f7f; stroke-width: 1.8; stroke-linecap: square"/>
    </g>
    <g id="text_25">
     <!-- studentz_split_detach -->
     <g transform="translate(77.41 134.43875) scale(0.08 -0.08)">
      <defs>
       <path id="DejaVuSans-7a" d="M 353 3500 
L 3084 3500 
L 3084 2975 
L 922 459 
L 3084 459 
L 3084 0 
L 275 0 
L 275 525 
L 2438 3041 
L 353 3041 
L 353 3500 
z
" transform="scale(0.015625)"/>
      </defs>
      <use xlink:href="#DejaVuSans-73"/>
      <use xlink:href="#DejaVuSans-74" x="52.099609"/>
      <use xlink:href="#DejaVuSans-75" x="91.308594"/>
      <use xlink:href="#DejaVuSans-64" x="154.6875"/>
      <use xlink:href="#DejaVuSans-65" x="218.164062"/>
      <use xlink:href="#DejaVuSans-6e" x="279.6875"/>
      <use xlink:href="#DejaVuSans-74" x="343.066406"/>
      <use xlink:href="#DejaVuSans-7a" x="382.275391"/>
      <use xlink:href="#DejaVuSans-5f" x="434.765625"/>
      <use xlink:href="#DejaVuSans-73" x="484.765625"/>
      <use xlink:href="#DejaVuSans-70" x="536.865234"/>
      <use xlink:href="#DejaVuSans-6c" x="600.341797"/>
      <use xlink:href="#DejaVuSans-69" x="628.125"/>
      <use xlink:href="#DejaVuSans-74" x="655.908203"/>
      <use xlink:href="#DejaVuSans-5f" x="695.117188"/>
      <use xlink:href="#DejaVuSans-64" x="745.117188"/>
      <use xlink:href="#DejaVuSans-65" x="808.59375"/>
      <use xlink:href="#DejaVuSans-74" x="870.117188"/>
      <use xlink:href="#DejaVuSans-61" x="909.326172"/>
      <use xlink:href="#DejaVuSans-63" x="970.605469"/>
      <use xlink:href="#DejaVuSans-68" x="1025.585938"/>
     </g>
    </g>
    <g id="line2d_46">
     <path d="M 55.01 143.60375 
L 63.01 143.60375 
L 71.01 143.60375 
" style="fill: none; stroke: #bcbd22; stroke-width: 1.8; stroke-linecap: square"/>
    </g>
    <g id="text_26">
     <!-- studentz_singleproj_detach -->
     <g transform="translate(77.41 146.40375) scale(0.08 -0.08)">
      <use xlink:href="#DejaVuSans-73"/>
      <use xlink:href="#DejaVuSans-74" x="52.099609"/>
      <use xlink:href="#DejaVuSans-75" x="91.308594"/>
      <use xlink:href="#DejaVuSans-64" x="154.6875"/>
      <use xlink:href="#DejaVuSans-65" x="218.164062"/>
      <use xlink:href="#DejaVuSans-6e" x="279.6875"/>
      <use xlink:href="#DejaVuSans-74" x="343.066406"/>
      <use xlink:href="#DejaVuSans-7a" x="382.275391"/>
      <use xlink:href="#DejaVuSans-5f" x="434.765625"/>
      <use xlink:href="#DejaVuSans-73" x="484.765625"/>
      <use xlink:href="#DejaVuSans-69" x="536.865234"/>
      <use xlink:href="#DejaVuSans-6e" x="564.648438"/>
      <use xlink:href="#DejaVuSans-67" x="628.027344"/>
      <use xlink:href="#DejaVuSans-6c" x="691.503906"/>
      <use xlink:href="#DejaVuSans-65" x="719.287109"/>
      <use xlink:href="#DejaVuSans-70" x="780.810547"/>
      <use xlink:href="#DejaVuSans-72" x="844.287109"/>
      <use xlink:href="#DejaVuSans-6f" x="883.150391"/>
      <use xlink:href="#DejaVuSans-6a" x="944.332031"/>
      <use xlink:href="#DejaVuSans-5f" x="972.115234"/>
      <use xlink:href="#DejaVuSans-64" x="1022.115234"/>
      <use xlink:href="#DejaVuSans-65" x="1085.591797"/>
      <use xlink:href="#DejaVuSans-74" x="1147.115234"/>
      <use xlink:href="#DejaVuSans-61" x="1186.324219"/>
      <use xlink:href="#DejaVuSans-63" x="1247.603516"/>
      <use xlink:href="#DejaVuSans-68" x="1302.583984"/>
     </g>
    </g>
   </g>
  </g>
 </g>
 <defs>
  <clipPath id="p85ead68678">
   <rect x="47.81" y="25.44" width="769.39" height="400.6"/>
  </clipPath>
 </defs>
</svg>
